<svg xmlns="http://www.w3.org/2000/svg" xmlns:xlink="http://www.w3.org/1999/xlink" contentStyleType="text/css" height="502px" preserveAspectRatio="none" style="width:838px;height:502px;background:#FFFFFF;" version="1.1" viewBox="0 0 838 502" width="838px" zoomAndPan="magnify"><defs/><g><line style="stroke:#181818;stroke-width:0.5;stroke-dasharray:5.0,5.0;" x1="42" x2="42" y1="81.2969" y2="421.7578"/><line style="stroke:#181818;stroke-width:0.5;stroke-dasharray:5.0,5.0;" x1="229.2021" x2="229.2021" y1="81.2969" y2="421.7578"/><line style="stroke:#181818;stroke-width:0.5;stroke-dasharray:5.0,5.0;" x1="370.2056" x2="370.2056" y1="81.2969" y2="421.7578"/><line style="stroke:#181818;stroke-width:0.5;stroke-dasharray:5.0,5.0;" x1="509.0142" x2="509.0142" y1="81.2969" y2="421.7578"/><line style="stroke:#181818;stroke-width:0.5;stroke-dasharray:5.0,5.0;" x1="637.4077" x2="637.4077" y1="81.2969" y2="421.7578"/><line style="stroke:#181818;stroke-width:0.5;stroke-dasharray:5.0,5.0;" x1="805.4463" x2="805.4463" y1="81.2969" y2="421.7578"/><text fill="#000000" font-family="sans-serif" font-size="14" lengthAdjust="spacing" textLength="69.3438" x="5" y="77.9951">Gebruiker</text><ellipse cx="42.6719" cy="13.5" fill="#E2E2F0" rx="8" ry="8" style="stroke:#181818;stroke-width:0.5;"/><path d="M42.6719,21.5 L42.6719,48.5 M29.6719,29.5 L55.6719,29.5 M42.6719,48.5 L29.6719,63.5 M42.6719,48.5 L55.6719,63.5 " fill="none" style="stroke:#181818;stroke-width:0.5;"/><text fill="#000000" font-family="sans-serif" font-size="14" lengthAdjust="spacing" textLength="69.3438" x="5" y="433.7529">Gebruiker</text><ellipse cx="42.6719" cy="445.5547" fill="#E2E2F0" rx="8" ry="8" style="stroke:#181818;stroke-width:0.5;"/><path d="M42.6719,453.5547 L42.6719,480.5547 M29.6719,461.5547 L55.6719,461.5547 M42.6719,480.5547 L29.6719,495.5547 M42.6719,480.5547 L55.6719,495.5547 " fill="none" style="stroke:#181818;stroke-width:0.5;"/><rect fill="#E2E2F0" height="30.2969" rx="2.5" ry="2.5" style="stroke:#181818;stroke-width:0.5;" width="114.2695" x="172.2021" y="50"/><text fill="#000000" font-family="sans-serif" font-size="14" lengthAdjust="spacing" textLength="100.2695" x="179.2021" y="69.9951">Koffiemachine</text><rect fill="#E2E2F0" height="30.2969" rx="2.5" ry="2.5" style="stroke:#181818;stroke-width:0.5;" width="114.2695" x="172.2021" y="420.7578"/><text fill="#000000" font-family="sans-serif" font-size="14" lengthAdjust="spacing" textLength="100.2695" x="179.2021" y="440.7529">Koffiemachine</text><rect fill="#E2E2F0" height="30.2969" rx="2.5" ry="2.5" style="stroke:#181818;stroke-width:0.5;" width="118.8086" x="311.2056" y="50"/><text fill="#000000" font-family="sans-serif" font-size="14" lengthAdjust="spacing" textLength="104.8086" x="318.2056" y="69.9951">Waterreservoir</text><rect fill="#E2E2F0" height="30.2969" rx="2.5" ry="2.5" style="stroke:#181818;stroke-width:0.5;" width="118.8086" x="311.2056" y="420.7578"/><text fill="#000000" font-family="sans-serif" font-size="14" lengthAdjust="spacing" textLength="104.8086" x="318.2056" y="440.7529">Waterreservoir</text><rect fill="#E2E2F0" height="30.2969" rx="2.5" ry="2.5" style="stroke:#181818;stroke-width:0.5;" width="138.3936" x="440.0142" y="50"/><text fill="#000000" font-family="sans-serif" font-size="14" lengthAdjust="spacing" textLength="124.3936" x="447.0142" y="69.9951">Koffiebonenmaler</text><rect fill="#E2E2F0" height="30.2969" rx="2.5" ry="2.5" style="stroke:#181818;stroke-width:0.5;" width="138.3936" x="440.0142" y="420.7578"/><text fill="#000000" font-family="sans-serif" font-size="14" lengthAdjust="spacing" textLength="124.3936" x="447.0142" y="440.7529">Koffiebonenmaler</text><rect fill="#E2E2F0" height="30.2969" rx="2.5" ry="2.5" style="stroke:#181818;stroke-width:0.5;" width="99.2578" x="588.4077" y="50"/><text fill="#000000" font-family="sans-serif" font-size="14" lengthAdjust="spacing" textLength="85.2578" x="595.4077" y="69.9951">Filterhouder</text><rect fill="#E2E2F0" height="30.2969" rx="2.5" ry="2.5" style="stroke:#181818;stroke-width:0.5;" width="99.2578" x="588.4077" y="420.7578"/><text fill="#000000" font-family="sans-serif" font-size="14" lengthAdjust="spacing" textLength="85.2578" x="595.4077" y="440.7529">Filterhouder</text><rect fill="#E2E2F0" height="30.2969" rx="2.5" ry="2.5" style="stroke:#181818;stroke-width:0.5;" width="53.1357" x="779.4463" y="50"/><text fill="#000000" font-family="sans-serif" font-size="14" lengthAdjust="spacing" textLength="39.1357" x="786.4463" y="69.9951">Kopje</text><rect fill="#E2E2F0" height="30.2969" rx="2.5" ry="2.5" style="stroke:#181818;stroke-width:0.5;" width="53.1357" x="779.4463" y="420.7578"/><text fill="#000000" font-family="sans-serif" font-size="14" lengthAdjust="spacing" textLength="39.1357" x="786.4463" y="440.7529">Kopje</text><polygon fill="#181818" points="217.3369,108.4297,227.3369,112.4297,217.3369,116.4297,221.3369,112.4297" style="stroke:#181818;stroke-width:1.0;"/><line style="stroke:#181818;stroke-width:1.0;" x1="42.6719" x2="223.3369" y1="112.4297" y2="112.4297"/><text fill="#000000" font-family="sans-serif" font-size="13" lengthAdjust="spacing" textLength="140.8481" x="49.6719" y="107.3638">Waterreservoir vullen</text><polygon fill="#181818" points="358.6099,137.5625,368.6099,141.5625,358.6099,145.5625,362.6099,141.5625" style="stroke:#181818;stroke-width:1.0;"/><line style="stroke:#181818;stroke-width:1.0;" x1="229.3369" x2="364.6099" y1="141.5625" y2="141.5625"/><text fill="#000000" font-family="sans-serif" font-size="13" lengthAdjust="spacing" textLength="112.5757" x="236.3369" y="136.4966">Water toevoegen</text><polygon fill="#181818" points="497.2109,166.6953,507.2109,170.6953,497.2109,174.6953,501.2109,170.6953" style="stroke:#181818;stroke-width:1.0;"/><line style="stroke:#181818;stroke-width:1.0;" x1="42.6719" x2="503.2109" y1="170.6953" y2="170.6953"/><text fill="#000000" font-family="sans-serif" font-size="13" lengthAdjust="spacing" textLength="122.5352" x="49.6719" y="165.6294">Koffiebonen malen</text><polygon fill="#181818" points="53.6719,195.8281,43.6719,199.8281,53.6719,203.8281,49.6719,199.8281" style="stroke:#181818;stroke-width:1.0;"/><line style="stroke:#181818;stroke-width:1.0;" x1="47.6719" x2="508.2109" y1="199.8281" y2="199.8281"/><text fill="#000000" font-family="sans-serif" font-size="13" lengthAdjust="spacing" textLength="98.9282" x="59.6719" y="194.7622">Gemalen koffie</text><polygon fill="#181818" points="626.0366,224.9609,636.0366,228.9609,626.0366,232.9609,630.0366,228.9609" style="stroke:#181818;stroke-width:1.0;"/><line style="stroke:#181818;stroke-width:1.0;" x1="42.6719" x2="632.0366" y1="228.9609" y2="228.9609"/><text fill="#000000" font-family="sans-serif" font-size="13" lengthAdjust="spacing" textLength="93.1772" x="49.6719" y="223.895">Filter plaatsen</text><polygon fill="#181818" points="626.0366,254.0938,636.0366,258.0938,626.0366,262.0938,630.0366,258.0938" style="stroke:#181818;stroke-width:1.0;"/><line style="stroke:#181818;stroke-width:1.0;" x1="42.6719" x2="632.0366" y1="258.0938" y2="258.0938"/><text fill="#000000" font-family="sans-serif" font-size="13" lengthAdjust="spacing" textLength="222.5996" x="49.6719" y="253.0278">Gemalen koffie toevoegen in filter</text><polygon fill="#181818" points="217.3369,283.2266,227.3369,287.2266,217.3369,291.2266,221.3369,287.2266" style="stroke:#181818;stroke-width:1.0;"/><line style="stroke:#181818;stroke-width:1.0;" x1="42.6719" x2="223.3369" y1="287.2266" y2="287.2266"/><text fill="#000000" font-family="sans-serif" font-size="13" lengthAdjust="spacing" textLength="162.665" x="49.6719" y="282.1606">Koffiemachine aanzetten</text><polygon fill="#181818" points="358.6099,312.3594,368.6099,316.3594,358.6099,320.3594,362.6099,316.3594" style="stroke:#181818;stroke-width:1.0;"/><line style="stroke:#181818;stroke-width:1.0;" x1="229.3369" x2="364.6099" y1="316.3594" y2="316.3594"/><text fill="#000000" font-family="sans-serif" font-size="13" lengthAdjust="spacing" textLength="117.2729" x="236.3369" y="311.2935">Water verwarmen</text><polygon fill="#181818" points="626.0366,341.4922,636.0366,345.4922,626.0366,349.4922,630.0366,345.4922" style="stroke:#181818;stroke-width:1.0;"/><line style="stroke:#181818;stroke-width:1.0;" x1="229.3369" x2="632.0366" y1="345.4922" y2="345.4922"/><text fill="#000000" font-family="sans-serif" font-size="13" lengthAdjust="spacing" textLength="191.3818" x="236.3369" y="340.4263">Heet water door koffie gieten</text><polygon fill="#181818" points="794.0142,370.625,804.0142,374.625,794.0142,378.625,798.0142,374.625" style="stroke:#181818;stroke-width:1.0;"/><line style="stroke:#181818;stroke-width:1.0;" x1="638.0366" x2="800.0142" y1="374.625" y2="374.625"/><text fill="#000000" font-family="sans-serif" font-size="13" lengthAdjust="spacing" textLength="143.9775" x="645.0366" y="369.5591">Koffie laten doorlopen</text><polygon fill="#181818" points="794.0142,399.7578,804.0142,403.7578,794.0142,407.7578,798.0142,403.7578" style="stroke:#181818;stroke-width:1.0;"/><line style="stroke:#181818;stroke-width:1.0;" x1="42.6719" x2="800.0142" y1="403.7578" y2="403.7578"/><text fill="#000000" font-family="sans-serif" font-size="13" lengthAdjust="spacing" textLength="115.3877" x="49.6719" y="398.6919">Koffie inschenken</text><!--SRC=[XPAnReCm48PtdkAKFI_0qB69L7Nfqlb2Zd35dAt34AbFNsCRMjDKdJ3uy-V_jy76MuKJNNJYdhHog9uRTYWU3Y-sRPa6R3eMEW2Ey9h69VQEdbHf99qjQ-JUrhT7meiLaW4DQNQQ_SRFR8AoizCrC-d3NkO-Kgeugggj1HoVrgGrbEbWdemXgVBqGcvPCmlUqcpf5gYzCWIjuKS9M5eiCfE83Q_3CCv17-cTATMfynESGVHZ43s4IjDtEc21DftB7zMB-mD4-IJl_oa_azvHXv9Qevo9FDmZTxNXlycHRaoBDhS9VBoGTNymOO741SQwNwTQiYnZqv7q95y0]--></g></svg>