<svg xmlns="http://www.w3.org/2000/svg" xmlns:xlink="http://www.w3.org/1999/xlink" contentStyleType="text/css" height="630px" preserveAspectRatio="none" style="width:690px;height:630px;background:#FFFFFF;" version="1.1" viewBox="0 0 690 630" width="690px" zoomAndPan="magnify"><defs/><g><line style="stroke:#181818;stroke-width:0.5;stroke-dasharray:5.0,5.0;" x1="42.6719" x2="42.6719" y1="81.2969" y2="549.0234"/><line style="stroke:#181818;stroke-width:0.5;stroke-dasharray:5.0,5.0;" x1="270.2031" x2="270.2031" y1="81.2969" y2="549.0234"/><line style="stroke:#181818;stroke-width:0.5;stroke-dasharray:5.0,5.0;" x1="389.2363" x2="389.2363" y1="81.2969" y2="549.0234"/><line style="stroke:#181818;stroke-width:0.5;stroke-dasharray:5.0,5.0;" x1="523.6729" x2="523.6729" y1="81.2969" y2="549.0234"/><line style="stroke:#181818;stroke-width:0.5;stroke-dasharray:5.0,5.0;" x1="638.1563" x2="638.1563" y1="81.2969" y2="549.0234"/><text fill="#000000" font-family="sans-serif" font-size="14" lengthAdjust="spacing" textLength="69.3438" x="5" y="77.9951">Gebruiker</text><ellipse cx="42.6719" cy="13.5" fill="#E2E2F0" rx="8" ry="8" style="stroke:#181818;stroke-width:0.5;"/><path d="M42.6719,21.5 L42.6719,48.5 M29.6719,29.5 L55.6719,29.5 M42.6719,48.5 L29.6719,63.5 M42.6719,48.5 L55.6719,63.5 " fill="none" style="stroke:#181818;stroke-width:0.5;"/><rect fill="#E2E2F0" height="30.2969" rx="2.5" ry="2.5" style="stroke:#181818;stroke-width:0.5;" width="99.2578" x="220.5742" y="50"/><text fill="#000000" font-family="sans-serif" font-size="14" lengthAdjust="spacing" textLength="85.2578" x="227.5742" y="69.9951">Filterhouder</text><rect fill="#E2E2F0" height="30.2969" rx="2.5" ry="2.5" style="stroke:#181818;stroke-width:0.5;" width="118.8086" x="329.832" y="50"/><text fill="#000000" font-family="sans-serif" font-size="14" lengthAdjust="spacing" textLength="104.8086" x="336.832" y="69.9951">Waterreservoir</text><rect fill="#E2E2F0" height="30.2969" rx="2.5" ry="2.5" style="stroke:#181818;stroke-width:0.5;" width="78.333" x="484.5063" y="50"/><text fill="#000000" font-family="sans-serif" font-size="14" lengthAdjust="spacing" textLength="64.333" x="491.5063" y="69.9951">Apparaat</text><rect fill="#E2E2F0" height="30.2969" rx="2.5" ry="2.5" style="stroke:#181818;stroke-width:0.5;" width="92.1689" x="592.0718" y="50"/><text fill="#000000" font-family="sans-serif" font-size="14" lengthAdjust="spacing" textLength="78.1689" x="599.0718" y="69.9951">Kopjekoffie</text><text fill="#000000" font-family="sans-serif" font-size="14" lengthAdjust="spacing" textLength="69.3438" x="5" y="622.0186">Gebruiker</text><ellipse cx="42.6719" cy="557.5234" fill="#E2E2F0" rx="8" ry="8" style="stroke:#181818;stroke-width:0.5;"/><path d="M42.6719,565.5234 L42.6719,592.5234 M29.6719,573.5234 L55.6719,573.5234 M42.6719,592.5234 L29.6719,607.5234 M42.6719,592.5234 L55.6719,607.5234 " fill="none" style="stroke:#181818;stroke-width:0.5;"/><rect fill="#E2E2F0" height="30.2969" rx="2.5" ry="2.5" style="stroke:#181818;stroke-width:0.5;" width="99.2578" x="220.5742" y="549.0234"/><text fill="#000000" font-family="sans-serif" font-size="14" lengthAdjust="spacing" textLength="85.2578" x="227.5742" y="569.0186">Filterhouder</text><rect fill="#E2E2F0" height="30.2969" rx="2.5" ry="2.5" style="stroke:#181818;stroke-width:0.5;" width="118.8086" x="329.832" y="549.0234"/><text fill="#000000" font-family="sans-serif" font-size="14" lengthAdjust="spacing" textLength="104.8086" x="336.832" y="569.0186">Waterreservoir</text><rect fill="#E2E2F0" height="30.2969" rx="2.5" ry="2.5" style="stroke:#181818;stroke-width:0.5;" width="78.333" x="484.5063" y="549.0234"/><text fill="#000000" font-family="sans-serif" font-size="14" lengthAdjust="spacing" textLength="64.333" x="491.5063" y="569.0186">Apparaat</text><rect fill="#E2E2F0" height="30.2969" rx="2.5" ry="2.5" style="stroke:#181818;stroke-width:0.5;" width="92.1689" x="592.0718" y="549.0234"/><text fill="#000000" font-family="sans-serif" font-size="14" lengthAdjust="spacing" textLength="78.1689" x="599.0718" y="569.0186">Kopjekoffie</text><line style="stroke:#181818;stroke-width:1.0;" x1="523.6729" x2="565.6729" y1="110.4297" y2="110.4297"/><line style="stroke:#181818;stroke-width:1.0;" x1="565.6729" x2="565.6729" y1="110.4297" y2="123.4297"/><line style="stroke:#181818;stroke-width:1.0;" x1="524.6729" x2="565.6729" y1="123.4297" y2="123.4297"/><polygon fill="#181818" points="534.6729,119.4297,524.6729,123.4297,534.6729,127.4297,530.6729,123.4297" style="stroke:#181818;stroke-width:1.0;"/><text fill="#000000" font-family="sans-serif" font-size="13" lengthAdjust="spacing" textLength="100.4834" x="530.6729" y="105.3638">Helemaal leeg?</text><polygon fill="#181818" points="511.6729,151.0625,521.6729,155.0625,511.6729,159.0625,515.6729,155.0625" style="stroke:#181818;stroke-width:1.0;"/><line style="stroke:#181818;stroke-width:1.0;" x1="270.2031" x2="517.6729" y1="155.0625" y2="155.0625"/><text fill="#000000" font-family="sans-serif" font-size="13" lengthAdjust="spacing" textLength="22.7119" x="277.2031" y="149.9966">Yes</text><polygon fill="#181818" points="511.6729,151.0625,521.6729,155.0625,511.6729,159.0625,515.6729,155.0625" style="stroke:#181818;stroke-width:1.0;"/><line style="stroke:#181818;stroke-width:1.0;" x1="389.2363" x2="517.6729" y1="155.0625" y2="155.0625"/><text fill="#000000" font-family="sans-serif" font-size="13" lengthAdjust="spacing" textLength="22.7119" x="396.2363" y="149.9966">Yes</text><line style="stroke:#181818;stroke-width:1.0;" x1="523.6729" x2="565.6729" y1="152.5625" y2="152.5625"/><line style="stroke:#181818;stroke-width:1.0;" x1="565.6729" x2="565.6729" y1="152.5625" y2="165.5625"/><line style="stroke:#181818;stroke-width:1.0;" x1="524.6729" x2="565.6729" y1="165.5625" y2="165.5625"/><polygon fill="#181818" points="534.6729,161.5625,524.6729,165.5625,534.6729,169.5625,530.6729,165.5625" style="stroke:#181818;stroke-width:1.0;"/><text fill="#000000" font-family="sans-serif" font-size="13" lengthAdjust="spacing" textLength="22.7119" x="530.6729" y="147.4966">Yes</text><polygon fill="#181818" points="258.2031,190.6953,268.2031,194.6953,258.2031,198.6953,262.2031,194.6953" style="stroke:#181818;stroke-width:1.0;"/><line style="stroke:#181818;stroke-width:1.0;" x1="42.6719" x2="264.2031" y1="194.6953" y2="194.6953"/><text fill="#000000" font-family="sans-serif" font-size="13" lengthAdjust="spacing" textLength="127.5181" x="49.6719" y="189.6294">Koffiefilter plaatsen</text><polygon fill="#181818" points="511.6729,219.8281,521.6729,223.8281,511.6729,227.8281,515.6729,223.8281" style="stroke:#181818;stroke-width:1.0;"/><line style="stroke:#181818;stroke-width:1.0;" x1="270.2031" x2="517.6729" y1="223.8281" y2="223.8281"/><text fill="#000000" font-family="sans-serif" font-size="13" lengthAdjust="spacing" textLength="147.145" x="277.2031" y="218.7622">Koffiefilter is geplaatst</text><path d="M26.6719,235.8281 L162.2974,235.8281 L162.2974,242.9609 L152.2974,252.9609 L26.6719,252.9609 L26.6719,235.8281 " fill="#EEEEEE" style="stroke:#000000;stroke-width:1.5;"/><rect fill="none" height="85.3984" style="stroke:#000000;stroke-width:1.5;" width="513.001" x="26.6719" y="235.8281"/><text fill="#000000" font-family="sans-serif" font-size="13" font-weight="bold" lengthAdjust="spacing" textLength="90.6255" x="41.6719" y="248.895">Herhaalbaar</text><polygon fill="#181818" points="258.2031,280.0938,268.2031,284.0938,258.2031,288.0938,262.2031,284.0938" style="stroke:#181818;stroke-width:1.0;"/><line style="stroke:#181818;stroke-width:1.0;" x1="42.6719" x2="264.2031" y1="284.0938" y2="284.0938"/><text fill="#000000" font-family="sans-serif" font-size="13" lengthAdjust="spacing" textLength="203.5313" x="49.6719" y="279.0278">Schepje filtermaling toevoegen</text><polygon fill="#181818" points="511.6729,309.2266,521.6729,313.2266,511.6729,317.2266,515.6729,313.2266" style="stroke:#181818;stroke-width:1.0;"/><line style="stroke:#181818;stroke-width:1.0;" x1="270.2031" x2="517.6729" y1="313.2266" y2="313.2266"/><text fill="#000000" font-family="sans-serif" font-size="13" lengthAdjust="spacing" textLength="130.127" x="277.2031" y="308.1606">Aantal schepjes + 1</text><path d="M26.6719,339.2266 L162.2974,339.2266 L162.2974,346.3594 L152.2974,356.3594 L26.6719,356.3594 L26.6719,339.2266 " fill="#EEEEEE" style="stroke:#000000;stroke-width:1.5;"/><rect fill="none" height="85.3984" style="stroke:#000000;stroke-width:1.5;" width="513.001" x="26.6719" y="339.2266"/><text fill="#000000" font-family="sans-serif" font-size="13" font-weight="bold" lengthAdjust="spacing" textLength="90.6255" x="41.6719" y="352.2935">Herhaalbaar</text><polygon fill="#181818" points="377.2363,383.4922,387.2363,387.4922,377.2363,391.4922,381.2363,387.4922" style="stroke:#181818;stroke-width:1.0;"/><line style="stroke:#181818;stroke-width:1.0;" x1="42.6719" x2="383.2363" y1="387.4922" y2="387.4922"/><text fill="#000000" font-family="sans-serif" font-size="13" lengthAdjust="spacing" textLength="112.5757" x="49.6719" y="382.4263">Water toevoegen</text><polygon fill="#181818" points="511.6729,412.625,521.6729,416.625,511.6729,420.625,515.6729,416.625" style="stroke:#181818;stroke-width:1.0;"/><line style="stroke:#181818;stroke-width:1.0;" x1="389.2363" x2="517.6729" y1="416.625" y2="416.625"/><text fill="#000000" font-family="sans-serif" font-size="13" lengthAdjust="spacing" textLength="110.4365" x="396.2363" y="411.5591">Waterniveau + 1</text><polygon fill="#181818" points="511.6729,455.7578,521.6729,459.7578,511.6729,463.7578,515.6729,459.7578" style="stroke:#181818;stroke-width:1.0;"/><line style="stroke:#181818;stroke-width:1.0;" x1="42.6719" x2="517.6729" y1="459.7578" y2="459.7578"/><text fill="#000000" font-family="sans-serif" font-size="13" lengthAdjust="spacing" textLength="129.2954" x="49.6719" y="454.6919">Apparaat aanzetten</text><line style="stroke:#181818;stroke-width:1.0;" x1="523.6729" x2="565.6729" y1="488.8906" y2="488.8906"/><line style="stroke:#181818;stroke-width:1.0;" x1="565.6729" x2="565.6729" y1="488.8906" y2="501.8906"/><line style="stroke:#181818;stroke-width:1.0;" x1="524.6729" x2="565.6729" y1="501.8906" y2="501.8906"/><polygon fill="#181818" points="534.6729,497.8906,524.6729,501.8906,534.6729,505.8906,530.6729,501.8906" style="stroke:#181818;stroke-width:1.0;"/><text fill="#000000" font-family="sans-serif" font-size="13" lengthAdjust="spacing" textLength="78.4951" x="530.6729" y="483.8247">Koffiezetten</text><polygon fill="#181818" points="626.1563,527.0234,636.1563,531.0234,626.1563,535.0234,630.1563,531.0234" style="stroke:#181818;stroke-width:1.0;"/><line style="stroke:#181818;stroke-width:1.0;" x1="523.6729" x2="632.1563" y1="531.0234" y2="531.0234"/><text fill="#000000" font-family="sans-serif" font-size="13" lengthAdjust="spacing" textLength="38.6255" x="530.6729" y="525.9575">Klaar!</text><!--SRC=[ZLAnReD03Dtz5SwIfUhGbQ5LbhPInmvLHuSOkEQuE_aCGxu-9ZGHe0QL2VpUk_Vy3Yer2hxnNZftP854egvqYOBYg_FAqiJki02-oER2cQMFRWxjadqHwMpu4TCF7sDLEOPD4gfRGkLuGfME0QuQV7o-wR70T_RS4ddqpFKBJDCicD-SORj8zIVbZjC0mgs30PoP5RR0aBsw335vKsKEQubc0fUnvb6bvYEnIxQSDBRRdaW0q9ur-y-oOMiGn_DQyYxKg97xoBNb6EGhMNPs1TPY7W_9-81F01mE_ukoQBKO1mltrUelO70zKpVrdffCqrvVYSA9LStXpgsD7VzoPgJ9_pRmh7dPd040]--></g></svg>