<svg xmlns="http://www.w3.org/2000/svg" xmlns:xlink="http://www.w3.org/1999/xlink" contentStyleType="text/css" height="567px" preserveAspectRatio="none" style="width:970px;height:567px;" version="1.1" viewBox="0 0 970 567" width="970px" zoomAndPan="magnify"><defs/><g><!--cluster box_pickup_application--><g id="cluster_box_pickup_application"><rect fill="none" height="477" rx="2.5" ry="2.5" style="stroke:#181818;stroke-width:1.0;" width="957.33" x="7" y="7"/><rect fill="none" height="10" style="stroke:#181818;stroke-width:1.0;" width="15" x="944.33" y="12"/><rect fill="none" height="2" style="stroke:#181818;stroke-width:1.0;" width="4" x="942.33" y="14"/><rect fill="none" height="2" style="stroke:#181818;stroke-width:1.0;" width="4" x="942.33" y="18"/><text fill="#000000" font-family="sans-serif" font-size="14" font-weight="bold" lengthAdjust="spacing" textLength="182.998" x="394.166" y="32.9951">box_pickup_application</text></g><!--entity frame--><g id="elem_frame"><rect fill="#F1F1F1" height="46.2969" rx="2.5" ry="2.5" style="stroke:#181818;stroke-width:0.5;" width="81.5146" x="391.07" y="421.85"/><rect fill="#F1F1F1" height="10" style="stroke:#181818;stroke-width:0.5;" width="15" x="452.5846" y="426.85"/><rect fill="#F1F1F1" height="2" style="stroke:#181818;stroke-width:0.5;" width="4" x="450.5846" y="428.85"/><rect fill="#F1F1F1" height="2" style="stroke:#181818;stroke-width:0.5;" width="4" x="450.5846" y="432.85"/><text fill="#000000" font-family="sans-serif" font-size="14" lengthAdjust="spacing" textLength="41.5146" x="406.07" y="454.8451">frame</text></g><!--entity placement--><g id="elem_placement"><ellipse cx="585.91" cy="401" fill="#F1F1F1" rx="8" ry="8" style="stroke:#181818;stroke-width:0.5;"/><text fill="#000000" font-family="sans-serif" font-size="14" lengthAdjust="spacing" textLength="74.2793" x="548.7704" y="430.9951">placement</text></g><!--entity robot--><g id="elem_robot"><rect fill="#F1F1F1" height="46.2969" rx="2.5" ry="2.5" style="stroke:#181818;stroke-width:0.5;" width="77.2627" x="547.27" y="93.85"/><rect fill="#F1F1F1" height="10" style="stroke:#181818;stroke-width:0.5;" width="15" x="604.5327" y="98.85"/><rect fill="#F1F1F1" height="2" style="stroke:#181818;stroke-width:0.5;" width="4" x="602.5327" y="100.85"/><rect fill="#F1F1F1" height="2" style="stroke:#181818;stroke-width:0.5;" width="4" x="602.5327" y="104.85"/><text fill="#000000" font-family="sans-serif" font-size="14" lengthAdjust="spacing" textLength="37.2627" x="562.27" y="126.8451">robot</text></g><!--entity input_0--><g id="elem_input_0"><ellipse cx="431.83" cy="108" fill="#F1F1F1" rx="8" ry="8" style="stroke:#181818;stroke-width:0.5;"/><text fill="#000000" font-family="sans-serif" font-size="14" lengthAdjust="spacing" textLength="51.9189" x="405.8705" y="137.9951">input_0</text></g><!--entity output_0--><g id="elem_output_0"><ellipse cx="902.31" cy="186" fill="#F1F1F1" rx="8" ry="8" style="stroke:#181818;stroke-width:0.5;"/><text fill="#000000" font-family="sans-serif" font-size="14" lengthAdjust="spacing" textLength="62.084" x="871.268" y="215.9951">output_0</text></g><!--entity end\neffector--><g id="elem_end\neffector"><ellipse cx="326.07" cy="90" fill="#F1F1F1" rx="8" ry="8" style="stroke:#181818;stroke-width:0.5;"/><text fill="#000000" font-family="sans-serif" font-size="14" lengthAdjust="spacing" textLength="26.373" x="298.7741" y="119.9951">end</text><text fill="#000000" font-family="sans-serif" font-size="14" lengthAdjust="spacing" textLength="54.5918" x="298.7741" y="136.292">effector</text></g><!--entity sensor--><g id="elem_sensor"><rect fill="#F1F1F1" height="46.2969" rx="2.5" ry="2.5" style="stroke:#181818;stroke-width:0.5;" width="86.3955" x="174.67" y="145.85"/><rect fill="#F1F1F1" height="10" style="stroke:#181818;stroke-width:0.5;" width="15" x="241.0655" y="150.85"/><rect fill="#F1F1F1" height="2" style="stroke:#181818;stroke-width:0.5;" width="4" x="239.0655" y="152.85"/><rect fill="#F1F1F1" height="2" style="stroke:#181818;stroke-width:0.5;" width="4" x="239.0655" y="156.85"/><text fill="#000000" font-family="sans-serif" font-size="14" lengthAdjust="spacing" textLength="46.3955" x="189.67" y="178.8451">sensor</text></g><!--entity sensor\nposition--><g id="elem_sensor\nposition"><ellipse cx="431.83" cy="217" fill="#F1F1F1" rx="8" ry="8" style="stroke:#181818;stroke-width:0.5;"/><text fill="#000000" font-family="sans-serif" font-size="14" lengthAdjust="spacing" textLength="46.3955" x="404.1034" y="246.9951">sensor</text><text fill="#000000" font-family="sans-serif" font-size="14" lengthAdjust="spacing" textLength="55.4531" x="404.1034" y="263.292">position</text></g><!--entity cabinet--><g id="elem_cabinet"><rect fill="#F1F1F1" height="46.2969" rx="2.5" ry="2.5" style="stroke:#181818;stroke-width:0.5;" width="92.0283" x="856.3" y="299.85"/><rect fill="#F1F1F1" height="10" style="stroke:#181818;stroke-width:0.5;" width="15" x="928.3283" y="304.85"/><rect fill="#F1F1F1" height="2" style="stroke:#181818;stroke-width:0.5;" width="4" x="926.3283" y="306.85"/><rect fill="#F1F1F1" height="2" style="stroke:#181818;stroke-width:0.5;" width="4" x="926.3283" y="310.85"/><text fill="#000000" font-family="sans-serif" font-size="14" lengthAdjust="spacing" textLength="52.0283" x="871.3" y="332.8451">cabinet</text></g><!--entity robot\npower--><g id="elem_robot\npower"><ellipse cx="747.26" cy="198" fill="#F1F1F1" rx="8" ry="8" style="stroke:#181818;stroke-width:0.5;"/><text fill="#000000" font-family="sans-serif" font-size="14" lengthAdjust="spacing" textLength="37.2627" x="725.6243" y="227.9951">robot</text><text fill="#000000" font-family="sans-serif" font-size="14" lengthAdjust="spacing" textLength="43.2715" x="725.6243" y="244.292">power</text></g><!--entity conveyor\npower--><g id="elem_conveyor\npower"><ellipse cx="747.26" cy="323" fill="#F1F1F1" rx="8" ry="8" style="stroke:#181818;stroke-width:0.5;"/><text fill="#000000" font-family="sans-serif" font-size="14" lengthAdjust="spacing" textLength="64.6406" x="714.9397" y="352.9951">conveyor</text><text fill="#000000" font-family="sans-serif" font-size="14" lengthAdjust="spacing" textLength="43.2715" x="714.9397" y="369.292">power</text></g><!--entity conveyor--><g id="elem_conveyor"><rect fill="#F1F1F1" height="46.2969" rx="2.5" ry="2.5" style="stroke:#181818;stroke-width:0.5;" width="104.6406" x="533.58" y="308.85"/><rect fill="#F1F1F1" height="10" style="stroke:#181818;stroke-width:0.5;" width="15" x="618.2206" y="313.85"/><rect fill="#F1F1F1" height="2" style="stroke:#181818;stroke-width:0.5;" width="4" x="616.2206" y="315.85"/><rect fill="#F1F1F1" height="2" style="stroke:#181818;stroke-width:0.5;" width="4" x="616.2206" y="319.85"/><text fill="#000000" font-family="sans-serif" font-size="14" lengthAdjust="spacing" textLength="64.6406" x="548.58" y="341.8451">conveyor</text></g><!--entity box\nposition--><g id="elem_box\nposition"><ellipse cx="431.83" cy="342" fill="#F1F1F1" rx="8" ry="8" style="stroke:#181818;stroke-width:0.5;"/><text fill="#000000" font-family="sans-serif" font-size="14" lengthAdjust="spacing" textLength="25.7373" x="404.1034" y="371.9951">box</text><text fill="#000000" font-family="sans-serif" font-size="14" lengthAdjust="spacing" textLength="55.4531" x="404.1034" y="388.292">position</text></g><!--entity box--><g id="elem_box"><rect fill="#F1F1F1" height="46.2969" rx="2.5" ry="2.5" style="stroke:#181818;stroke-width:0.5;" width="65.7373" x="185" y="262.85"/><rect fill="#F1F1F1" height="10" style="stroke:#181818;stroke-width:0.5;" width="15" x="230.7373" y="267.85"/><rect fill="#F1F1F1" height="2" style="stroke:#181818;stroke-width:0.5;" width="4" x="228.7373" y="269.85"/><rect fill="#F1F1F1" height="2" style="stroke:#181818;stroke-width:0.5;" width="4" x="228.7373" y="273.85"/><text fill="#000000" font-family="sans-serif" font-size="14" lengthAdjust="spacing" textLength="25.7373" x="200" y="295.8451">box</text></g><!--entity shape--><g id="elem_shape"><ellipse cx="68.34" cy="203" fill="#F1F1F1" rx="8" ry="8" style="stroke:#181818;stroke-width:0.5;"/><text fill="#000000" font-family="sans-serif" font-size="14" lengthAdjust="spacing" textLength="42.2461" x="47.217" y="232.9951">shape</text></g><!--entity gripper--><g id="elem_gripper"><rect fill="#F1F1F1" height="46.2969" rx="2.5" ry="2.5" style="stroke:#181818;stroke-width:0.5;" width="90.6748" x="23" y="108.85"/><rect fill="#F1F1F1" height="10" style="stroke:#181818;stroke-width:0.5;" width="15" x="93.6748" y="113.85"/><rect fill="#F1F1F1" height="2" style="stroke:#181818;stroke-width:0.5;" width="4" x="91.6748" y="115.85"/><rect fill="#F1F1F1" height="2" style="stroke:#181818;stroke-width:0.5;" width="4" x="91.6748" y="119.85"/><text fill="#000000" font-family="sans-serif" font-size="14" lengthAdjust="spacing" textLength="50.6748" x="38" y="141.8451">gripper</text></g><!--entity building--><g id="elem_building"><rect fill="#F1F1F1" height="46.2969" rx="2.5" ry="2.5" style="stroke:#181818;stroke-width:0.5;" width="96.0752" x="699.23" y="501.85"/><rect fill="#F1F1F1" height="10" style="stroke:#181818;stroke-width:0.5;" width="15" x="775.3052" y="506.85"/><rect fill="#F1F1F1" height="2" style="stroke:#181818;stroke-width:0.5;" width="4" x="773.3052" y="508.85"/><rect fill="#F1F1F1" height="2" style="stroke:#181818;stroke-width:0.5;" width="4" x="773.3052" y="512.85"/><text fill="#000000" font-family="sans-serif" font-size="14" lengthAdjust="spacing" textLength="56.0752" x="714.23" y="534.8451">building</text></g><!--entity energy--><g id="elem_energy"><ellipse cx="902.31" cy="516" fill="#F1F1F1" rx="8" ry="8" style="stroke:#181818;stroke-width:0.5;"/><text fill="#000000" font-family="sans-serif" font-size="14" lengthAdjust="spacing" textLength="49.0273" x="877.7963" y="545.9951">energy</text></g><!--entity location--><g id="elem_location"><ellipse cx="585.91" cy="529" fill="#F1F1F1" rx="8" ry="8" style="stroke:#181818;stroke-width:0.5;"/><text fill="#000000" font-family="sans-serif" font-size="14" lengthAdjust="spacing" textLength="55.5488" x="558.1356" y="558.9951">location</text></g><!--link frame to placement--><g id="link_frame_placement"><path d="M472.78,433.44 C508.16,423.2 557.1,409.04 576.5,403.43 " fill="none" id="frame-placement" style="stroke:#181818;stroke-width:1.0;"/></g><!--link input_0 to robot--><g id="link_input_0_robot"><path d="M440.58,108.46 C459.89,109.6 511.16,112.64 547.07,114.76 " fill="none" id="input_0-robot" style="stroke:#181818;stroke-width:1.0;"/></g><!--link output_0 to robot--><g id="link_output_0_robot"><path d="M892.94,180.65 C875.54,169.85 833.91,145.57 795.3,135 C737.33,119.13 667.22,116.25 624.89,116.21 " fill="none" id="output_0-robot" style="stroke:#181818;stroke-width:1.0;"/></g><!--link end\neffector to robot--><g id="link_end\neffector_robot"><path d="M334.97,85.08 C346.69,78.09 369.61,65.64 391.07,61 C426.48,53.35 437.32,52.7 472.58,61 C499.41,67.32 527.15,81.07 548.35,93.36 " fill="none" id="end\neffector-robot" style="stroke:#181818;stroke-width:1.0;"/></g><!--link sensor to input_0--><g id="link_sensor_input_0"><path d="M261.33,176.63 C290.35,180.04 329.18,180.98 361.07,169 C389.08,158.48 409.516,135.778 420.626,121.558 " fill="none" id="sensor-to-input_0" style="stroke:#181818;stroke-width:1.0;"/><polygon fill="#181818" points="424.32,116.83,415.627,121.4594,421.2417,120.77,421.931,126.3847,424.32,116.83" style="stroke:#181818;stroke-width:1.0;"/><text fill="#000000" font-family="sans-serif" font-size="13" lengthAdjust="spacing" textLength="68.0723" x="292.07" y="165.0669">connected</text></g><!--link sensor to sensor\nposition--><g id="link_sensor_sensor\nposition"><path d="M259.41,192.54 C269.47,197.43 280.42,202 291.07,205 C339.83,218.71 395.6234,218.2613 417.0734,217.5413 " fill="none" id="sensor-to-sensor\nposition" style="stroke:#181818;stroke-width:1.0;"/><polygon fill="#181818" points="423.07,217.34,413.9409,213.6442,418.0728,217.5077,414.2093,221.6397,423.07,217.34" style="stroke:#181818;stroke-width:1.0;"/></g><!--link robot to placement--><g id="link_robot_placement"><path d="M572,140.44 C552.07,175.53 516.34,244.48 503.08,308.5 C498.85,328.96 492.62,337.42 503.08,355.5 C519.04,383.04 552.5221,393.6274 570.6421,397.7874 " fill="none" id="robot-to-placement" style="stroke:#181818;stroke-width:1.0;"/><polygon fill="#181818" points="576.49,399.13,568.6132,393.2176,571.6168,398.0112,566.8232,401.0147,576.49,399.13" style="stroke:#181818;stroke-width:1.0;"/></g><!--link robot\npower to cabinet--><g id="link_robot\npower_cabinet"><path d="M756.06,204.37 C777.2,221.63 836.4,269.99 872.37,299.36 " fill="none" id="robot\npower-cabinet" style="stroke:#181818;stroke-width:1.0;"/></g><!--link conveyor\npower to cabinet--><g id="link_conveyor\npower_cabinet"><path d="M756.06,323 C774.22,323 820.44,323 855.92,323 " fill="none" id="conveyor\npower-cabinet" style="stroke:#181818;stroke-width:1.0;"/></g><!--reverse link placement to cabinet--><g id="link_placement_cabinet"><path d="M601.0846,402.089 C629.5446,404.129 720.49,408.38 795.3,385 C822.16,376.6 849.51,360.38 869.7,346.64 " fill="none" id="placement-backto-cabinet" style="stroke:#181818;stroke-width:1.0;"/><polygon fill="#181818" points="595.1,401.66,603.791,406.2932,600.0872,402.0175,604.363,398.3137,595.1,401.66" style="stroke:#181818;stroke-width:1.0;"/></g><!--link robot to robot\npower--><g id="link_robot_robot\npower"><path d="M624.67,136.2 C662.59,155.47 712.8715,181.0209 733.1515,191.3309 " fill="none" id="robot-to-robot\npower" style="stroke:#181818;stroke-width:1.0;"/><polygon fill="#181818" points="738.5,194.05,732.29,186.4057,734.0429,191.7841,728.6645,193.537,738.5,194.05" style="stroke:#181818;stroke-width:1.0;"/></g><!--link cabinet to output_0--><g id="link_cabinet_output_0"><path d="M902.31,299.45 C902.31,264.74 902.31,236.02 902.31,201.31 " fill="none" id="cabinet-to-output_0" style="stroke:#181818;stroke-width:1.0;"/><polygon fill="#181818" points="902.31,195.31,898.31,204.31,902.31,200.31,906.31,204.31,902.31,195.31" style="stroke:#181818;stroke-width:1.0;"/></g><!--link sensor\nposition to conveyor--><g id="link_sensor\nposition_conveyor"><path d="M440.58,222.86 C461.1,238.38 517.72,281.19 553.64,308.35 " fill="none" id="sensor\nposition-conveyor" style="stroke:#181818;stroke-width:1.0;"/></g><!--link box\nposition to conveyor--><g id="link_box\nposition_conveyor"><path d="M440.58,341.49 C457.53,340.38 499.1,337.64 533.3,335.39 " fill="none" id="box\nposition-conveyor" style="stroke:#181818;stroke-width:1.0;"/></g><!--link conveyor to placement--><g id="link_conveyor_placement"><path d="M585.91,355.27 C585.91,367.37 585.91,373.47 585.91,385.57 " fill="none" id="conveyor-to-placement" style="stroke:#181818;stroke-width:1.0;"/><polygon fill="#181818" points="585.91,391.57,589.91,382.57,585.91,386.57,581.91,382.57,585.91,391.57" style="stroke:#181818;stroke-width:1.0;"/></g><!--link conveyor to conveyor\npower--><g id="link_conveyor_conveyor\npower"><path d="M638.64,329.08 C675,327.02 714.2395,324.8083 732.2995,323.7883 " fill="none" id="conveyor-to-conveyor\npower" style="stroke:#181818;stroke-width:1.0;"/><polygon fill="#181818" points="738.29,323.45,729.0788,319.9639,733.298,323.7319,729.5299,327.9511,738.29,323.45" style="stroke:#181818;stroke-width:1.0;"/></g><!--link shape to box--><g id="link_shape_box"><path d="M77.69,207.7 C97.87,219.05 150.13,248.45 184.55,267.82 " fill="none" id="shape-box" style="stroke:#181818;stroke-width:1.0;"/></g><!--reverse link shape to gripper--><g id="link_shape_gripper"><path d="M68.34,187.57 C68.34,174.9 68.34,168.24 68.34,155.57 " fill="none" id="shape-backto-gripper" style="stroke:#181818;stroke-width:1.0;"/><polygon fill="#181818" points="68.34,193.57,72.34,184.57,68.34,188.57,64.34,184.57,68.34,193.57" style="stroke:#181818;stroke-width:1.0;"/></g><!--link box to box\nposition--><g id="link_box_box\nposition"><path d="M251.06,294.51 C301.32,307.78 389.7387,331.1486 417.2787,338.4186 " fill="none" id="box-to-box\nposition" style="stroke:#181818;stroke-width:1.0;"/><polygon fill="#181818" points="423.08,339.95,415.399,333.7854,418.2456,338.6738,413.3571,341.5204,423.08,339.95" style="stroke:#181818;stroke-width:1.0;"/></g><!--link gripper to end\neffector--><g id="link_gripper_end\neffector"><path d="M113.88,124.68 C176.85,114.34 281.6394,97.1326 311.5294,92.2226 " fill="none" id="gripper-to-end\neffector" style="stroke:#181818;stroke-width:1.0;"/><polygon fill="#181818" points="317.45,91.25,307.9206,88.7618,312.5161,92.0605,309.2174,96.656,317.45,91.25" style="stroke:#181818;stroke-width:1.0;"/></g><!--link building to energy--><g id="link_building_energy"><path d="M795.43,522.23 C830.21,520.18 874.53,517.57 892.83,516.5 " fill="none" id="building-energy" style="stroke:#181818;stroke-width:1.0;"/></g><!--link location to building--><g id="link_location_building"><path d="M594.59,528.81 C613.18,528.34 661.78,527.12 699.01,526.19 " fill="none" id="location-building" style="stroke:#181818;stroke-width:1.0;"/></g><!--link frame to location--><g id="link_frame_location"><path d="M472.78,467.07 C508.51,486.81 552.828,511.2788 571.818,521.7688 " fill="none" id="frame-to-location" style="stroke:#181818;stroke-width:1.0;"/><polygon fill="#181818" points="577.07,524.67,571.1262,516.8169,572.6934,522.2524,567.2579,523.8196,577.07,524.67" style="stroke:#181818;stroke-width:1.0;"/></g><!--link cabinet to energy--><g id="link_cabinet_energy"><path d="M902.31,346.31 C902.31,399.73 902.31,447.15 902.31,500.58 " fill="none" id="cabinet-to-energy" style="stroke:#181818;stroke-width:1.0;"/><polygon fill="#181818" points="902.31,506.58,906.31,497.58,902.31,501.58,898.31,497.58,902.31,506.58" style="stroke:#181818;stroke-width:1.0;"/></g><!--SRC=[VPAxRiCm34LtVGNXgHqCTExGfP-H584iCuuGXnHakMrGzDzBFVnAWcO89Dr3tajPmzcIqrvVeD7ct7aUgNtddZq4hsaG2Ice7ey10eEttIb0QpsQO9cKCdnnJ890mzy7PyrvT0VjN6-DZWJyA91V-jiTnGO_qlhf6Lol3LvYQJtMaBICUMuup9Z46yFX1UeQaZ2TynWU2nLIkoSy7YKZ-shHS_S1QM2Vs-Ur46-ppIiO9f9IR6-HAg_tv7YmSRXgcIqvW43pLCNEwCOIBkDKYOmzlZ27AyGCYFydNhFF0oPnPHzlRcsvIXBpRgosTLxqwGPNNsZoNkBUpPpY56ocvEF_XqmRk4kxA37mxUZb3gNx76WuQOVHG0vNmJjldSEIksoWxgLfAbX8ASjUsyZRkgXlNv7wLMhNZBPlBNKVIaaI9FJTDPh09CJZdilBhzkLeDBxJfqdG6q-Hkxs1m00]--></g></svg>