<svg xmlns="http://www.w3.org/2000/svg" xmlns:xlink="http://www.w3.org/1999/xlink" contentStyleType="text/css" height="770px" preserveAspectRatio="none" style="width:615px;height:770px;background:#FFFFFF;" version="1.1" viewBox="0 0 615 770" width="615px" zoomAndPan="magnify"><defs/><g><!--cluster Gebruiker--><g id="cluster_Gebruiker"><path d="M366.5,155 L561.5,155 A12.5,12.5 0 0 1 574,167.5 L574,176.2969 L354,176.2969 L354,167.5 A12.5,12.5 0 0 1 366.5,155 " fill="#F1F1F1" style="stroke:#F1F1F1;stroke-width:1.0;"/><rect fill="none" height="609" rx="12.5" ry="12.5" style="stroke:#181818;stroke-width:0.5;" width="220" x="354" y="155"/><line style="stroke:#181818;stroke-width:0.5;" x1="354" x2="574" y1="176.2969" y2="176.2969"/><text fill="#000000" font-family="sans-serif" font-size="14" lengthAdjust="spacing" textLength="69.3438" x="429.5" y="171.9951">Gebruiker</text></g><!--cluster Apparaat--><g id="cluster_Apparaat"><path d="M19.5,7 L255.5,7 A12.5,12.5 0 0 1 268,19.5 L268,28.2969 L7,28.2969 L7,19.5 A12.5,12.5 0 0 1 19.5,7 " fill="#F1F1F1" style="stroke:#F1F1F1;stroke-width:1.0;"/><rect fill="none" height="757" rx="12.5" ry="12.5" style="stroke:#181818;stroke-width:0.5;" width="261" x="7" y="7"/><line style="stroke:#181818;stroke-width:0.5;" x1="7" x2="268" y1="28.2969" y2="28.2969"/><text fill="#000000" font-family="sans-serif" font-size="14" lengthAdjust="spacing" textLength="64.333" x="105.5" y="23.9951">Apparaat</text></g><g id="Gebruiker.Zin"><rect fill="#F1F1F1" height="50" rx="12.5" ry="12.5" style="stroke:#181818;stroke-width:0.5;" width="103.0498" x="454.48" y="190"/><line style="stroke:#181818;stroke-width:0.5;" x1="454.48" x2="557.5298" y1="216.2969" y2="216.2969"/><text fill="#000000" font-family="sans-serif" font-size="14" lengthAdjust="spacing" textLength="83.0498" x="464.48" y="207.9951">Zin in koffie</text></g><g id="Gebruiker.Voorbereiden"><rect fill="#F1F1F1" height="50" rx="12.5" ry="12.5" style="stroke:#181818;stroke-width:0.5;" width="187.8975" x="370.05" y="317"/><line style="stroke:#181818;stroke-width:0.5;" x1="370.05" x2="557.9475" y1="343.2969" y2="343.2969"/><text fill="#000000" font-family="sans-serif" font-size="14" lengthAdjust="spacing" textLength="167.8975" x="380.05" y="334.9951">Voorbereidingen treffen</text></g><g id="Gebruiker.Wachten"><rect fill="#F1F1F1" height="50" rx="12.5" ry="12.5" style="stroke:#181818;stroke-width:0.5;" width="147.3535" x="392.32" y="444"/><line style="stroke:#181818;stroke-width:0.5;" x1="392.32" x2="539.6735" y1="470.2969" y2="470.2969"/><text fill="#000000" font-family="sans-serif" font-size="14" lengthAdjust="spacing" textLength="127.3535" x="402.32" y="461.9951">Wachten op koffie</text></g><g id="Gebruiker.Drinken"><rect fill="#F1F1F1" height="50" rx="12.5" ry="12.5" style="stroke:#181818;stroke-width:0.5;" width="117.5557" x="370.22" y="571"/><line style="stroke:#181818;stroke-width:0.5;" x1="370.22" x2="487.7757" y1="597.2969" y2="597.2969"/><text fill="#000000" font-family="sans-serif" font-size="14" lengthAdjust="spacing" textLength="97.5557" x="380.22" y="588.9951">Koffie drinken</text></g><g id="Gebruiker.Opruimen"><rect fill="#F1F1F1" height="50" rx="12.5" ry="12.5" style="stroke:#181818;stroke-width:0.5;" width="89.5488" x="377.23" y="698"/><line style="stroke:#181818;stroke-width:0.5;" x1="377.23" x2="466.7788" y1="724.2969" y2="724.2969"/><text fill="#000000" font-family="sans-serif" font-size="14" lengthAdjust="spacing" textLength="69.5488" x="387.23" y="715.9951">Opruimen</text></g><g id="Apparaat.Filter"><rect fill="#F1F1F1" height="50" rx="12.5" ry="12.5" style="stroke:#181818;stroke-width:0.5;" width="162.8301" x="74.58" y="42"/><line style="stroke:#181818;stroke-width:0.5;" x1="74.58" x2="237.4101" y1="68.2969" y2="68.2969"/><text fill="#000000" font-family="sans-serif" font-size="14" lengthAdjust="spacing" textLength="142.8301" x="84.58" y="59.9951">Koffiefilter geplaatst</text></g><g id="Apparaat.Maling"><rect fill="#F1F1F1" height="50" rx="12.5" ry="12.5" style="stroke:#181818;stroke-width:0.5;" width="191.3018" x="60.35" y="190"/><line style="stroke:#181818;stroke-width:0.5;" x1="60.35" x2="251.6518" y1="216.2969" y2="216.2969"/><text fill="#000000" font-family="sans-serif" font-size="14" lengthAdjust="spacing" textLength="171.3018" x="70.35" y="207.9951">Filtermaling toegevoegd</text></g><g id="Apparaat.Water"><rect fill="#F1F1F1" height="50" rx="12.5" ry="12.5" style="stroke:#181818;stroke-width:0.5;" width="150.1357" x="70.93" y="317"/><line style="stroke:#181818;stroke-width:0.5;" x1="70.93" x2="221.0657" y1="343.2969" y2="343.2969"/><text fill="#000000" font-family="sans-serif" font-size="14" lengthAdjust="spacing" textLength="130.1357" x="80.93" y="334.9951">Water toegevoegd</text></g><g id="Apparaat.Aanzetten"><rect fill="#F1F1F1" height="50" rx="12.5" ry="12.5" style="stroke:#181818;stroke-width:0.5;" width="114.8145" x="93.59" y="444"/><line style="stroke:#181818;stroke-width:0.5;" x1="93.59" x2="208.4045" y1="470.2969" y2="470.2969"/><text fill="#000000" font-family="sans-serif" font-size="14" lengthAdjust="spacing" textLength="94.8145" x="103.59" y="461.9951">Apparaat aan</text></g><g id="Apparaat.Leeg"><rect fill="#F1F1F1" height="50" rx="12.5" ry="12.5" style="stroke:#181818;stroke-width:0.5;" width="118.7861" x="113.61" y="698"/><line style="stroke:#181818;stroke-width:0.5;" x1="113.61" x2="232.3961" y1="724.2969" y2="724.2969"/><text fill="#000000" font-family="sans-serif" font-size="14" lengthAdjust="spacing" textLength="98.7861" x="123.61" y="715.9951">Apparaat leeg</text></g><g id="Apparaat.Klaar"><rect fill="#F1F1F1" height="50" rx="12.5" ry="12.5" style="stroke:#181818;stroke-width:0.5;" width="120.7139" x="112.64" y="571"/><line style="stroke:#181818;stroke-width:0.5;" x1="112.64" x2="233.3539" y1="597.2969" y2="597.2969"/><text fill="#000000" font-family="sans-serif" font-size="14" lengthAdjust="spacing" textLength="100.7139" x="122.64" y="588.9951">Koffie is klaar!</text></g><ellipse cx="506" cy="67" fill="#222222" rx="10" ry="10" style="stroke:#222222;stroke-width:1.0;"/><!--link *start* to Zin--><g id="link_*start*_Zin"><path d="M506,77.13 C506,99.29 506,150.52 506,183.54 " fill="none" id="*start*-to-Zin" style="stroke:#181818;stroke-width:1.0;"/><polygon fill="#181818" points="506,189.54,510,180.54,506,184.54,502,180.54,506,189.54" style="stroke:#181818;stroke-width:1.0;"/><text fill="#000000" font-family="sans-serif" font-size="13" lengthAdjust="spacing" textLength="100.0645" x="507" y="135.0669">Geur van koffie</text></g><!--link Zin to Voorbereiden--><g id="link_Zin_Voorbereiden"><path d="M497.8,240.4 C490.4,262.42 481.4805,288.9723 474.0905,310.9723 " fill="none" id="Zin-to-Voorbereiden" style="stroke:#181818;stroke-width:1.0;"/><polygon fill="#181818" points="472.18,316.66,478.8376,309.4022,473.7721,311.9203,471.254,306.8548,472.18,316.66" style="stroke:#181818;stroke-width:1.0;"/><text fill="#000000" font-family="sans-serif" font-size="13" lengthAdjust="spacing" textLength="8.271" x="488" y="283.0669">1</text></g><!--link Voorbereiden to Wachten--><g id="link_Voorbereiden_Wachten"><path d="M464.39,367.4 C464.74,389.42 465.1646,415.6608 465.5146,437.6608 " fill="none" id="Voorbereiden-to-Wachten" style="stroke:#181818;stroke-width:1.0;"/><polygon fill="#181818" points="465.61,443.66,469.4663,434.5975,465.5305,438.6606,461.4673,434.7248,465.61,443.66" style="stroke:#181818;stroke-width:1.0;"/><text fill="#000000" font-family="sans-serif" font-size="13" lengthAdjust="spacing" textLength="8.271" x="466" y="410.0669">2</text></g><!--link Wachten to Drinken--><g id="link_Wachten_Drinken"><path d="M458.78,494.4 C452.26,516.42 444.4249,542.9073 437.9049,564.9073 " fill="none" id="Wachten-to-Drinken" style="stroke:#181818;stroke-width:1.0;"/><polygon fill="#181818" points="436.2,570.66,442.5925,563.1676,437.6207,565.8661,434.9222,560.8944,436.2,570.66" style="stroke:#181818;stroke-width:1.0;"/><text fill="#000000" font-family="sans-serif" font-size="13" lengthAdjust="spacing" textLength="8.271" x="450" y="537.0669">3</text></g><!--link Voorbereiden to Filter--><g id="link_Voorbereiden_Filter"><path d="M430.77,316.61 C405.27,297.17 369.82,268.56 342,240 C305.33,202.36 307.17,183.11 269,147 C247.09,126.27 224.4216,110.0475 201.9216,95.6275 " fill="none" id="Voorbereiden-to-Filter" style="stroke:#181818;stroke-width:1.0;"/><polygon fill="#181818" points="196.87,92.39,202.289,100.614,201.0797,95.0879,206.6057,93.8785,196.87,92.39" style="stroke:#181818;stroke-width:1.0;"/><text fill="#000000" font-family="sans-serif" font-size="13" lengthAdjust="spacing" textLength="93.1772" x="343" y="219.5669">Filter plaatsen</text></g><!--link Voorbereiden to Maling--><g id="link_Voorbereiden_Maling"><path d="M369.93,330.8 C283.6,320.46 167.02,303.67 153,287 C142.36,274.35 142.263,261.3203 145.933,246.2203 " fill="none" id="Voorbereiden-to-Maling" style="stroke:#181818;stroke-width:1.0;"/><polygon fill="#181818" points="147.35,240.39,141.3376,248.1907,146.1691,245.2486,149.1113,250.0801,147.35,240.39" style="stroke:#181818;stroke-width:1.0;"/><text fill="#000000" font-family="sans-serif" font-size="13" lengthAdjust="spacing" textLength="150.8013" x="154" y="283.0669">Filtermaling toevoegen</text></g><!--link Voorbereiden to Water--><g id="link_Voorbereiden_Water"><path d="M369.82,342 C322.45,342 271.81,342 227.36,342 " fill="none" id="Voorbereiden-to-Water" style="stroke:#181818;stroke-width:1.0;"/><polygon fill="#181818" points="221.36,342,230.36,346,226.36,342,230.36,338,221.36,342" style="stroke:#181818;stroke-width:1.0;"/><text fill="#000000" font-family="sans-serif" font-size="13" lengthAdjust="spacing" textLength="112.5757" x="239.56" y="335.0669">Water toevoegen</text></g><!--link Voorbereiden to Aanzetten--><g id="link_Voorbereiden_Aanzetten"><path d="M397.96,367.39 C373.69,376.5 346.03,387.05 321,397 C283.25,412 246.6458,427.2623 213.7658,441.1723 " fill="none" id="Voorbereiden-to-Aanzetten" style="stroke:#181818;stroke-width:1.0;"/><polygon fill="#181818" points="208.24,443.51,218.0873,443.6873,212.8449,441.5619,214.9703,436.3195,208.24,443.51" style="stroke:#181818;stroke-width:1.0;"/><text fill="#000000" font-family="sans-serif" font-size="13" lengthAdjust="spacing" textLength="133.2754" x="322" y="410.0669">Koffie zetten starten</text></g><!--link Aanzetten to Wachten--><g id="link_Aanzetten_Wachten"><path d="M208.78,469 C260.28,469 329.96,469 385.91,469 " fill="none" id="Aanzetten-to-Wachten" style="stroke:#181818;stroke-width:1.0;"/><polygon fill="#181818" points="391.91,469,382.91,465,386.91,469,382.91,473,391.91,469" style="stroke:#181818;stroke-width:1.0;"/><text fill="#000000" font-family="sans-serif" font-size="13" lengthAdjust="spacing" textLength="147.6021" x="226.87" y="462.0669">Machine begint proces</text></g><!--link Drinken to Opruimen--><g id="link_Drinken_Opruimen"><path d="M427.63,621.4 C426.4,643.42 424.9376,669.6695 423.6976,691.6695 " fill="none" id="Drinken-to-Opruimen" style="stroke:#181818;stroke-width:1.0;"/><polygon fill="#181818" points="423.36,697.66,427.8601,688.8994,423.6414,692.6679,419.8728,688.4492,423.36,697.66" style="stroke:#181818;stroke-width:1.0;"/><text fill="#000000" font-family="sans-serif" font-size="13" lengthAdjust="spacing" textLength="8.271" x="426" y="664.0669">4</text></g><!--link Opruimen to Leeg--><g id="link_Opruimen_Leeg"><path d="M376.88,723 C336.48,723 282.96,723 238.64,723 " fill="none" id="Opruimen-to-Leeg" style="stroke:#181818;stroke-width:1.0;"/><polygon fill="#181818" points="232.64,723,241.64,727,237.64,723,241.64,719,232.64,723" style="stroke:#181818;stroke-width:1.0;"/><text fill="#000000" font-family="sans-serif" font-size="13" lengthAdjust="spacing" textLength="64.5811" x="272.81" y="716.0669">Opruimen</text></g><!--link Leeg to Filter--><g id="link_Leeg_Filter"><path d="M148.59,697.72 C130.83,678.55 107.74,650.25 95,621 C26.76,464.31 49.71,410.77 43,240 C41.38,198.7 23.9,183.66 43,147 C55.33,123.33 73.1724,108.3047 95.2324,95.4847 " fill="none" id="Leeg-to-Filter" style="stroke:#181818;stroke-width:1.0;"/><polygon fill="#181818" points="100.42,92.47,90.6288,93.5337,96.097,94.9823,94.6484,100.4505,100.42,92.47" style="stroke:#181818;stroke-width:1.0;"/><text fill="#000000" font-family="sans-serif" font-size="13" lengthAdjust="spacing" textLength="8.271" x="45" y="410.0669">1</text></g><!--link Filter to Maling--><g id="link_Filter_Maling"><path d="M156,92.44 C156,119.55 156,157.02 156,183.97 " fill="none" id="Filter-to-Maling" style="stroke:#181818;stroke-width:1.0;"/><polygon fill="#181818" points="156,189.97,160,180.97,156,184.97,152,180.97,156,189.97" style="stroke:#181818;stroke-width:1.0;"/><text fill="#000000" font-family="sans-serif" font-size="13" lengthAdjust="spacing" textLength="8.271" x="157" y="135.0669">2</text></g><!--link Maling to Water--><g id="link_Maling_Water"><path d="M126.27,240.34 C118.12,248.79 110.34,258.94 106,270 C99.65,286.2 104.8074,298.6136 115.8574,311.9236 " fill="none" id="Maling-to-Water" style="stroke:#181818;stroke-width:1.0;"/><polygon fill="#181818" points="119.69,316.54,117.0188,307.0603,116.4962,312.693,110.8635,312.1704,119.69,316.54" style="stroke:#181818;stroke-width:1.0;"/><text fill="#000000" font-family="sans-serif" font-size="13" lengthAdjust="spacing" textLength="8.271" x="107" y="283.0669">3</text></g><!--link Water to Aanzetten--><g id="link_Water_Aanzetten"><path d="M146.98,367.4 C147.86,389.42 148.9102,415.6648 149.7902,437.6648 " fill="none" id="Water-to-Aanzetten" style="stroke:#181818;stroke-width:1.0;"/><polygon fill="#181818" points="150.03,443.66,153.6671,434.5073,149.8302,438.664,145.6735,434.8271,150.03,443.66" style="stroke:#181818;stroke-width:1.0;"/><text fill="#000000" font-family="sans-serif" font-size="13" lengthAdjust="spacing" textLength="8.271" x="149" y="410.0669">4</text></g><!--link Aanzetten to Klaar--><g id="link_Aanzetten_Klaar"><path d="M155.29,494.4 C159.17,516.42 163.7979,542.7512 167.6779,564.7512 " fill="none" id="Aanzetten-to-Klaar" style="stroke:#181818;stroke-width:1.0;"/><polygon fill="#181818" points="168.72,570.66,171.0961,561.1021,167.8516,565.736,163.2176,562.4915,168.72,570.66" style="stroke:#181818;stroke-width:1.0;"/><text fill="#000000" font-family="sans-serif" font-size="13" lengthAdjust="spacing" textLength="8.271" x="164" y="537.0669">5</text></g><!--link Klaar to Drinken--><g id="link_Klaar_Drinken"><path d="M233.5,596 C278.94,596 318.38,596 363.82,596 " fill="none" id="Klaar-to-Drinken" style="stroke:#181818;stroke-width:1.0;"/><polygon fill="#181818" points="369.82,596,360.82,592,364.82,596,360.82,600,369.82,596" style="stroke:#181818;stroke-width:1.0;"/></g><!--link Klaar to Leeg--><g id="link_Klaar_Leeg"><path d="M173,621.4 C173,643.42 173,669.66 173,691.66 " fill="none" id="Klaar-to-Leeg" style="stroke:#181818;stroke-width:1.0;"/><polygon fill="#181818" points="173,697.66,177,688.66,173,692.66,169,688.66,173,697.66" style="stroke:#181818;stroke-width:1.0;"/><text fill="#000000" font-family="sans-serif" font-size="13" lengthAdjust="spacing" textLength="8.271" x="174" y="664.0669">6</text></g><!--SRC=[ZLDDRuCm3BtxLtWzJg9IFxP33vKgJTkXgtPRfKqxfCMm29gWaFQmNpz3W3OGf28aakVtWktdb5POmicNLCXlffD4qWH5YMzqC6UPaPbo34f7-zJQ7CYGZALAIQ4rb2IaUe8hYphbNXn_BIjq4Vv94s_fsvg3iP4g6vp_ub20xySVZAArdokkU7ysU15jFU37VSLjiYoTmKZ8LxNbh70EGzJdDkaoTp5w-1etHI6C47RwAdDBXjdDeiWPBRdSExGxaRCndVRajbRJHLFbrprdx8NxlVjssdka6w7-oBg-D0usUxRLLFO6g2DztV5AAi83fL9PB8m-KWd3hlgz_YXuSIArmYKCKI_PTwAgKsqCggUPlfQ3ENFguVDK_f0cpgQKd57MvpiZMaNVbhHkRknBd8dNYzFO4EJMqK7QGYYVrdMxTxzaYHbdRHvy-hR20FnMHS4XdK4VYu83EOS-5eM6RW4zA1gRhsLmbcxPTHNCV88U5BgT0qvWL9x_0G00]--></g></svg>