<svg xmlns="http://www.w3.org/2000/svg" xmlns:xlink="http://www.w3.org/1999/xlink" contentStyleType="text/css" height="822px" preserveAspectRatio="none" style="width:910px;height:822px;background:#FFFFFF;" version="1.1" viewBox="0 0 910 822" width="910px" zoomAndPan="magnify"><defs/><g><!--cluster Gebruiker--><g id="cluster_Gebruiker"><path d="M349.5,89 L697.5,89 A12.5,12.5 0 0 1 710,101.5 L710,110.2969 L337,110.2969 L337,101.5 A12.5,12.5 0 0 1 349.5,89 " fill="#F1F1F1" style="stroke:#F1F1F1;stroke-width:1.0;"/><rect fill="none" height="249" rx="12.5" ry="12.5" style="stroke:#181818;stroke-width:0.5;" width="373" x="337" y="89"/><line style="stroke:#181818;stroke-width:0.5;" x1="337" x2="710" y1="110.2969" y2="110.2969"/><text fill="#000000" font-family="sans-serif" font-size="14" lengthAdjust="spacing" textLength="69.3438" x="489" y="105.9951">Gebruiker</text></g><!--cluster Apparaat--><g id="cluster_Apparaat"><path d="M19.5,237 L300.5,237 A12.5,12.5 0 0 1 313,249.5 L313,258.2969 L7,258.2969 L7,249.5 A12.5,12.5 0 0 1 19.5,237 " fill="#F1F1F1" style="stroke:#F1F1F1;stroke-width:1.0;"/><rect fill="none" height="579" rx="12.5" ry="12.5" style="stroke:#181818;stroke-width:0.5;" width="306" x="7" y="237"/><line style="stroke:#181818;stroke-width:0.5;" x1="7" x2="313" y1="258.2969" y2="258.2969"/><text fill="#000000" font-family="sans-serif" font-size="14" lengthAdjust="spacing" textLength="64.333" x="128" y="253.9951">Apparaat</text></g><g id="Gebruiker.Zin"><rect fill="#F1F1F1" height="50" rx="12.5" ry="12.5" style="stroke:#181818;stroke-width:0.5;" width="103.0498" x="395.48" y="124"/><line style="stroke:#181818;stroke-width:0.5;" x1="395.48" x2="498.5298" y1="150.2969" y2="150.2969"/><text fill="#000000" font-family="sans-serif" font-size="14" lengthAdjust="spacing" textLength="83.0498" x="405.48" y="141.9951">Zin in koffie</text></g><g id="Gebruiker.Voorbereiden"><rect fill="#F1F1F1" height="50" rx="12.5" ry="12.5" style="stroke:#181818;stroke-width:0.5;" width="187.8975" x="353.05" y="272"/><line style="stroke:#181818;stroke-width:0.5;" x1="353.05" x2="540.9475" y1="298.2969" y2="298.2969"/><text fill="#000000" font-family="sans-serif" font-size="14" lengthAdjust="spacing" textLength="167.8975" x="363.05" y="289.9951">Voorbereidingen treffen</text></g><g id="Gebruiker.Wachten"><rect fill="#F1F1F1" height="50" rx="12.5" ry="12.5" style="stroke:#181818;stroke-width:0.5;" width="147.3535" x="540.32" y="124"/><line style="stroke:#181818;stroke-width:0.5;" x1="540.32" x2="687.6735" y1="150.2969" y2="150.2969"/><text fill="#000000" font-family="sans-serif" font-size="14" lengthAdjust="spacing" textLength="127.3535" x="550.32" y="141.9951">Wachten op koffie</text></g><g id="Gebruiker.Drinken"><rect fill="#F1F1F1" height="50" rx="12.5" ry="12.5" style="stroke:#181818;stroke-width:0.5;" width="117.5557" x="576.22" y="272"/><line style="stroke:#181818;stroke-width:0.5;" x1="576.22" x2="693.7757" y1="298.2969" y2="298.2969"/><text fill="#000000" font-family="sans-serif" font-size="14" lengthAdjust="spacing" textLength="97.5557" x="586.22" y="289.9951">Koffie drinken</text></g><g id="Apparaat.Filter"><rect fill="#F1F1F1" height="50" rx="12.5" ry="12.5" style="stroke:#181818;stroke-width:0.5;" width="162.8301" x="28.58" y="272"/><line style="stroke:#181818;stroke-width:0.5;" x1="28.58" x2="191.4101" y1="298.2969" y2="298.2969"/><text fill="#000000" font-family="sans-serif" font-size="14" lengthAdjust="spacing" textLength="142.8301" x="38.58" y="289.9951">Koffiefilter geplaatst</text></g><g id="Apparaat.Maling"><rect fill="#F1F1F1" height="50" rx="12.5" ry="12.5" style="stroke:#181818;stroke-width:0.5;" width="191.3018" x="60.35" y="401"/><line style="stroke:#181818;stroke-width:0.5;" x1="60.35" x2="251.6518" y1="427.2969" y2="427.2969"/><text fill="#000000" font-family="sans-serif" font-size="14" lengthAdjust="spacing" textLength="171.3018" x="70.35" y="418.9951">Filtermaling toegevoegd</text></g><g id="Apparaat.Water"><rect fill="#F1F1F1" height="50" rx="12.5" ry="12.5" style="stroke:#181818;stroke-width:0.5;" width="150.1357" x="146.93" y="528"/><line style="stroke:#181818;stroke-width:0.5;" x1="146.93" x2="297.0657" y1="554.2969" y2="554.2969"/><text fill="#000000" font-family="sans-serif" font-size="14" lengthAdjust="spacing" textLength="130.1357" x="156.93" y="545.9951">Water toegevoegd</text></g><g id="Apparaat.Aanzetten"><rect fill="#F1F1F1" height="50" rx="12.5" ry="12.5" style="stroke:#181818;stroke-width:0.5;" width="114.8145" x="180.59" y="639"/><line style="stroke:#181818;stroke-width:0.5;" x1="180.59" x2="295.4045" y1="665.2969" y2="665.2969"/><text fill="#000000" font-family="sans-serif" font-size="14" lengthAdjust="spacing" textLength="94.8145" x="190.59" y="656.9951">Apparaat aan</text></g><g id="Apparaat.Leeg"><rect fill="#F1F1F1" height="50" rx="12.5" ry="12.5" style="stroke:#181818;stroke-width:0.5;" width="118.7861" x="178.61" y="750"/><line style="stroke:#181818;stroke-width:0.5;" x1="178.61" x2="297.3961" y1="776.2969" y2="776.2969"/><text fill="#000000" font-family="sans-serif" font-size="14" lengthAdjust="spacing" textLength="98.7861" x="188.61" y="767.9951">Apparaat leeg</text></g><g id="Apparaat.Klaar"><rect fill="#F1F1F1" height="50" rx="12.5" ry="12.5" style="stroke:#181818;stroke-width:0.5;" width="120.7139" x="22.64" y="750"/><line style="stroke:#181818;stroke-width:0.5;" x1="22.64" x2="143.3539" y1="776.2969" y2="776.2969"/><text fill="#000000" font-family="sans-serif" font-size="14" lengthAdjust="spacing" textLength="100.7139" x="32.64" y="767.9951">Koffie is klaar!</text></g><ellipse cx="447" cy="16" fill="#222222" rx="10" ry="10" style="stroke:#222222;stroke-width:1.0;"/><!--link *start* to Zin--><g id="link_*start*_Zin"><path d="M447,26.42 C447,46.54 447,88.27 447,117.58 " fill="none" id="*start*-to-Zin" style="stroke:#181818;stroke-width:1.0;"/><polygon fill="#181818" points="447,123.58,451,114.58,447,118.58,443,114.58,447,123.58" style="stroke:#181818;stroke-width:1.0;"/><text fill="#000000" font-family="sans-serif" font-size="13" lengthAdjust="spacing" textLength="78.1143" x="448" y="69.0669">Zin in Koffie</text></g><!--link Zin to Voorbereiden--><g id="link_Zin_Voorbereiden"><path d="M447,174.44 C447,201.55 447,239.02 447,265.97 " fill="none" id="Zin-to-Voorbereiden" style="stroke:#181818;stroke-width:1.0;"/><polygon fill="#181818" points="447,271.97,451,262.97,447,266.97,443,262.97,447,271.97" style="stroke:#181818;stroke-width:1.0;"/></g><!--link Voorbereiden to Filter--><g id="link_Voorbereiden_Filter"><path d="M352.75,297 C302.07,297 246.18,297 197.58,297 " fill="none" id="Voorbereiden-to-Filter" style="stroke:#181818;stroke-width:1.0;"/><polygon fill="#181818" points="191.58,297,200.58,301,196.58,297,200.58,293,191.58,297" style="stroke:#181818;stroke-width:1.0;"/><text fill="#000000" font-family="sans-serif" font-size="13" lengthAdjust="spacing" textLength="93.1772" x="225.73" y="290.0669">Filter plaatsen</text></g><!--link Voorbereiden to Maling--><g id="link_Voorbereiden_Maling"><path d="M390.34,322.49 C366.86,331.53 339.06,340.82 313,346 C295,349.58 160.66,340.71 148,354 C136.45,366.12 137.3561,379.5371 142.6361,394.8671 " fill="none" id="Voorbereiden-to-Maling" style="stroke:#181818;stroke-width:1.0;"/><polygon fill="#181818" points="144.59,400.54,145.4411,390.728,142.9618,395.8125,137.8772,393.3332,144.59,400.54" style="stroke:#181818;stroke-width:1.0;"/><text fill="#000000" font-family="sans-serif" font-size="13" lengthAdjust="spacing" textLength="150.8013" x="149" y="367.0669">Filtermaling toevoegen</text></g><!--link Voorbereiden to Water--><g id="link_Voorbereiden_Water"><path d="M423.21,322.16 C403.09,342.79 373.69,373.41 349,401 C309.94,444.65 270.191,492.7094 245.581,522.8994 " fill="none" id="Voorbereiden-to-Water" style="stroke:#181818;stroke-width:1.0;"/><polygon fill="#181818" points="241.79,527.55,250.5769,523.1015,244.9492,523.6745,244.3761,518.0467,241.79,527.55" style="stroke:#181818;stroke-width:1.0;"/><text fill="#000000" font-family="sans-serif" font-size="13" lengthAdjust="spacing" textLength="112.5757" x="350" y="430.5669">Water toevoegen</text></g><!--link Voorbereiden to Aanzetten--><g id="link_Voorbereiden_Aanzetten"><path d="M457.8,322.43 C469.9,353.59 485.56,408.53 467,451 C429.14,537.63 341.6118,601.5184 286.4518,635.4184 " fill="none" id="Voorbereiden-to-Aanzetten" style="stroke:#181818;stroke-width:1.0;"/><polygon fill="#181818" points="281.34,638.56,291.1021,637.2555,285.5998,635.942,286.9133,630.4398,281.34,638.56" style="stroke:#181818;stroke-width:1.0;"/><text fill="#000000" font-family="sans-serif" font-size="13" lengthAdjust="spacing" textLength="133.2754" x="451" y="494.0669">Koffie zetten starten</text></g><!--link Aanzetten to Wachten--><g id="link_Aanzetten_Wachten"><path d="M295.69,662.86 C430.34,660.98 754,646.82 754,554 C754,296 754,296 754,296 C754,252.56 749.77,236.55 721,204 C710.25,191.84 701.4159,184.9001 686.9559,177.2001 " fill="none" id="Aanzetten-to-Wachten" style="stroke:#181818;stroke-width:1.0;"/><polygon fill="#181818" points="681.66,174.38,687.7238,182.1408,686.0733,176.7301,691.484,175.0795,681.66,174.38" style="stroke:#181818;stroke-width:1.0;"/><text fill="#000000" font-family="sans-serif" font-size="13" lengthAdjust="spacing" textLength="147.6021" x="755" y="430.5669">Machine begint proces</text></g><!--link Wachten to Drinken--><g id="link_Wachten_Drinken"><path d="M617.51,174.44 C621.41,201.55 626.8172,239.0809 630.6872,266.0309 " fill="none" id="Wachten-to-Drinken" style="stroke:#181818;stroke-width:1.0;"/><polygon fill="#181818" points="631.54,271.97,634.2201,262.4928,630.8293,267.0208,626.3013,263.6299,631.54,271.97" style="stroke:#181818;stroke-width:1.0;"/><text fill="#000000" font-family="sans-serif" font-size="13" lengthAdjust="spacing" textLength="88.3086" x="624" y="217.0669">Koffie is klaar</text></g><!--link Drinken to Leeg--><g id="link_Drinken_Leeg"><path d="M635,322.35 C635,347.91 635,389.28 635,425 C635,425 635,425 635,665 C635,734.06 414.7502,760.4826 303.8402,769.5226 " fill="none" id="Drinken-to-Leeg" style="stroke:#181818;stroke-width:1.0;"/><polygon fill="#181818" points="297.86,770.01,307.1552,773.2656,302.8435,769.6038,306.5053,765.2921,297.86,770.01" style="stroke:#181818;stroke-width:1.0;"/><text fill="#000000" font-family="sans-serif" font-size="13" lengthAdjust="spacing" textLength="64.5811" x="636" y="557.5669">Opruimen</text></g><!--link Leeg to Filter--><g id="link_Leeg_Filter"><path d="M178.39,749.95 C115.07,723.49 24,682.41 24,665 C24,425 24,425 24,425 C24,383.73 51.1646,349.9962 76.0346,326.5462 " fill="none" id="Leeg-to-Filter" style="stroke:#181818;stroke-width:1.0;"/><polygon fill="#181818" points="80.4,322.43,71.1077,325.694,76.7621,325.8602,76.596,331.5146,80.4,322.43" style="stroke:#181818;stroke-width:1.0;"/></g><!--link Filter to Maling--><g id="link_Filter_Maling"><path d="M108.23,322.41 C108,336.95 109.2,355.54 115,371 C119.01,381.69 122.1264,387.3411 129.0964,396.0711 " fill="none" id="Filter-to-Maling" style="stroke:#181818;stroke-width:1.0;"/><polygon fill="#181818" points="132.84,400.76,130.3505,391.231,129.7203,396.8526,124.0987,396.2224,132.84,400.76" style="stroke:#181818;stroke-width:1.0;"/></g><!--link Maling to Water--><g id="link_Maling_Water"><path d="M168.88,451.4 C180.51,473.42 194.7278,500.3546 206.3478,522.3546 " fill="none" id="Maling-to-Water" style="stroke:#181818;stroke-width:1.0;"/><polygon fill="#181818" points="209.15,527.66,208.4836,517.8337,206.8148,523.2388,201.4097,521.57,209.15,527.66" style="stroke:#181818;stroke-width:1.0;"/></g><!--link Water to Aanzetten--><g id="link_Water_Aanzetten"><path d="M225.59,578.46 C228.23,596.41 230.9192,614.7535 233.5492,632.6835 " fill="none" id="Water-to-Aanzetten" style="stroke:#181818;stroke-width:1.0;"/><polygon fill="#181818" points="234.42,638.62,237.0715,629.1348,233.6944,633.6729,229.1562,630.2958,234.42,638.62" style="stroke:#181818;stroke-width:1.0;"/></g><!--link Aanzetten to Klaar--><g id="link_Aanzetten_Klaar"><path d="M203.21,689.46 C177.69,707.41 148.0781,728.2389 122.5781,746.1689 " fill="none" id="Aanzetten-to-Klaar" style="stroke:#181818;stroke-width:1.0;"/><polygon fill="#181818" points="117.67,749.62,127.333,747.7154,121.7601,746.7441,122.7315,741.1713,117.67,749.62" style="stroke:#181818;stroke-width:1.0;"/></g><!--link Aanzetten to Leeg--><g id="link_Aanzetten_Leeg"><path d="M238,689.46 C238,707.41 238,725.69 238,743.62 " fill="none" id="Aanzetten-to-Leeg" style="stroke:#181818;stroke-width:1.0;"/><polygon fill="#181818" points="238,749.62,242,740.62,238,744.62,234,740.62,238,749.62" style="stroke:#181818;stroke-width:1.0;"/></g><!--SRC=[ZL91ReCm4Bpx5TiSAoKFoA5IfAezf55kZTIg1nCMQa5iPDmU-lhkUWt8m2482NizinvcjWyw86m-Z0Lw6rTL1ZUWUtZ5ml-O1lsEpbGli7VdV84UJMbiZHQ2nwf2EoDCA1oP5ttz3iHmtVebwNo07oC6Iczii-Z_B5MbFX-_OBjz0bQ_X_GFGbMyuxDCpBh6Y3jqdVPQXzsBQGDwwfSMNKlL_axoIRVap4Y-oJOu_7N8XjtLvA95W7n7ybtSWxP_6DZfVN82qfwSzUpm2fGxBAAW1YTQ6OjGO6riWCwxA_PgYSpvAPv9WEcX8HEzMc8oxM-8RDsv8z2DywKdpSE0WPOmSHmoLZusbGHNeqGNShmaCp3cETNHx3AdIAhJAATOLh7nT25RQvl3HlDd4pzuzP33Zz4_5HrYpz9iglJbKXAP9f0h8aNaHgF7E_FefNbUuvl-0G00]--></g></svg>