<svg xmlns="http://www.w3.org/2000/svg" xmlns:xlink="http://www.w3.org/1999/xlink" contentStyleType="text/css" height="1145px" preserveAspectRatio="none" style="width:919px;height:1145px;background:#FFFFFF;" version="1.1" viewBox="0 0 919 1145" width="919px" zoomAndPan="magnify"><defs/><g><g id="Zin"><rect fill="#F1F1F1" height="50.2656" rx="12.5" ry="12.5" style="stroke:#181818;stroke-width:0.5;" width="103.0498" x="541.89" y="103"/><line style="stroke:#181818;stroke-width:0.5;" x1="541.89" x2="644.9398" y1="129.2969" y2="129.2969"/><text fill="#000000" font-family="sans-serif" font-size="14" lengthAdjust="spacing" textLength="83.0498" x="551.89" y="120.9951">Zin in koffie</text><text fill="#000000" font-family="sans-serif" font-size="12" lengthAdjust="spacing" textLength="59.4375" x="546.89" y="145.4355">Gebruiker</text></g><g id="Voorbereiden"><rect fill="#F1F1F1" height="50.2656" rx="12.5" ry="12.5" style="stroke:#181818;stroke-width:0.5;" width="187.8975" x="350.47" y="230.26"/><line style="stroke:#181818;stroke-width:0.5;" x1="350.47" x2="538.3675" y1="256.5569" y2="256.5569"/><text fill="#000000" font-family="sans-serif" font-size="14" lengthAdjust="spacing" textLength="167.8975" x="360.47" y="248.2551">Voorbereidingen treffen</text><text fill="#000000" font-family="sans-serif" font-size="12" lengthAdjust="spacing" textLength="59.4375" x="355.47" y="272.6955">Gebruiker</text></g><g id="Wachten"><rect fill="#F1F1F1" height="50.2656" rx="12.5" ry="12.5" style="stroke:#181818;stroke-width:0.5;" width="147.3535" x="532.74" y="834.59"/><line style="stroke:#181818;stroke-width:0.5;" x1="532.74" x2="680.0935" y1="860.8869" y2="860.8869"/><text fill="#000000" font-family="sans-serif" font-size="14" lengthAdjust="spacing" textLength="127.3535" x="542.74" y="852.5851">Wachten op koffie</text><text fill="#000000" font-family="sans-serif" font-size="12" lengthAdjust="spacing" textLength="59.4375" x="537.74" y="877.0255">Gebruiker</text></g><g id="Drinken"><rect fill="#F1F1F1" height="50.2656" rx="12.5" ry="12.5" style="stroke:#181818;stroke-width:0.5;" width="117.5557" x="444.64" y="961.86"/><line style="stroke:#181818;stroke-width:0.5;" x1="444.64" x2="562.1957" y1="988.1569" y2="988.1569"/><text fill="#000000" font-family="sans-serif" font-size="14" lengthAdjust="spacing" textLength="97.5557" x="454.64" y="979.8551">Koffie drinken</text><text fill="#000000" font-family="sans-serif" font-size="12" lengthAdjust="spacing" textLength="59.4375" x="449.64" y="1004.2955">Gebruiker</text></g><ellipse cx="593.42" cy="16" fill="#222222" rx="10" ry="10" style="stroke:#222222;stroke-width:1.0;"/><g id="Filter"><rect fill="#F1F1F1" height="50.2656" rx="12.5" ry="12.5" style="stroke:#181818;stroke-width:0.5;" width="162.8301" x="7" y="357.53"/><line style="stroke:#181818;stroke-width:0.5;" x1="7" x2="169.8301" y1="383.8269" y2="383.8269"/><text fill="#000000" font-family="sans-serif" font-size="14" lengthAdjust="spacing" textLength="142.8301" x="17" y="375.5251">Koffiefilter geplaatst</text><text fill="#000000" font-family="sans-serif" font-size="12" lengthAdjust="spacing" textLength="55.1426" x="12" y="399.9655">Apparaat</text></g><g id="Maling"><rect fill="#F1F1F1" height="50.2656" rx="12.5" ry="12.5" style="stroke:#181818;stroke-width:0.5;" width="191.3018" x="143.76" y="484.8"/><line style="stroke:#181818;stroke-width:0.5;" x1="143.76" x2="335.0618" y1="511.0969" y2="511.0969"/><text fill="#000000" font-family="sans-serif" font-size="14" lengthAdjust="spacing" textLength="171.3018" x="153.76" y="502.7951">Filtermaling toegevoegd</text><text fill="#000000" font-family="sans-serif" font-size="12" lengthAdjust="spacing" textLength="55.1426" x="148.76" y="527.2355">Apparaat</text></g><g id="Water"><rect fill="#F1F1F1" height="50.2656" rx="12.5" ry="12.5" style="stroke:#181818;stroke-width:0.5;" width="150.1357" x="341.35" y="596.06"/><line style="stroke:#181818;stroke-width:0.5;" x1="341.35" x2="491.4857" y1="622.3569" y2="622.3569"/><text fill="#000000" font-family="sans-serif" font-size="14" lengthAdjust="spacing" textLength="130.1357" x="351.35" y="614.0551">Water toegevoegd</text><text fill="#000000" font-family="sans-serif" font-size="12" lengthAdjust="spacing" textLength="55.1426" x="346.35" y="638.4955">Apparaat</text></g><g id="Aanzetten"><rect fill="#F1F1F1" height="50.2656" rx="12.5" ry="12.5" style="stroke:#181818;stroke-width:0.5;" width="114.8145" x="380.01" y="707.33"/><line style="stroke:#181818;stroke-width:0.5;" x1="380.01" x2="494.8245" y1="733.6269" y2="733.6269"/><text fill="#000000" font-family="sans-serif" font-size="14" lengthAdjust="spacing" textLength="94.8145" x="390.01" y="725.3251">Apparaat aan</text><text fill="#000000" font-family="sans-serif" font-size="12" lengthAdjust="spacing" textLength="55.1426" x="385.01" y="749.7655">Apparaat</text></g><g id="Leeg"><rect fill="#F1F1F1" height="50.2656" rx="12.5" ry="12.5" style="stroke:#181818;stroke-width:0.5;" width="118.7861" x="382.02" y="1089.12"/><line style="stroke:#181818;stroke-width:0.5;" x1="382.02" x2="500.8061" y1="1115.4169" y2="1115.4169"/><text fill="#000000" font-family="sans-serif" font-size="14" lengthAdjust="spacing" textLength="98.7861" x="392.02" y="1107.1151">Apparaat leeg</text><text fill="#000000" font-family="sans-serif" font-size="12" lengthAdjust="spacing" textLength="55.1426" x="387.02" y="1131.5555">Apparaat</text></g><g id="Klaar"><rect fill="#F1F1F1" height="50.2656" rx="12.5" ry="12.5" style="stroke:#181818;stroke-width:0.5;" width="120.7139" x="377.06" y="834.59"/><line style="stroke:#181818;stroke-width:0.5;" x1="377.06" x2="497.7739" y1="860.8869" y2="860.8869"/><text fill="#000000" font-family="sans-serif" font-size="14" lengthAdjust="spacing" textLength="100.7139" x="387.06" y="852.5851">Koffie is klaar!</text><text fill="#000000" font-family="sans-serif" font-size="12" lengthAdjust="spacing" textLength="55.1426" x="382.06" y="877.0255">Apparaat</text></g><!--link *start* to Zin--><g id="link_*start*_Zin"><path d="M593.42,26.39 C593.42,43.14 593.42,72.67 593.42,96.73 " fill="none" id="*start*-to-Zin" style="stroke:#181818;stroke-width:1.0;"/><polygon fill="#181818" points="593.42,102.73,597.42,93.73,593.42,97.73,589.42,93.73,593.42,102.73" style="stroke:#181818;stroke-width:1.0;"/><text fill="#000000" font-family="sans-serif" font-size="13" lengthAdjust="spacing" textLength="285.9429" x="594.42" y="69.0669">Een lekker warm drankje zou er wel in gaan</text></g><!--link Zin to Voorbereiden--><g id="link_Zin_Voorbereiden"><path d="M564.33,153.58 C538.16,175.58 504.4921,203.8883 478.2721,225.9383 " fill="none" id="Zin-to-Voorbereiden" style="stroke:#181818;stroke-width:1.0;"/><polygon fill="#181818" points="473.68,229.8,483.1426,227.0688,477.5067,226.5819,477.9936,220.946,473.68,229.8" style="stroke:#181818;stroke-width:1.0;"/><text fill="#000000" font-family="sans-serif" font-size="13" lengthAdjust="spacing" textLength="159.5991" x="529.42" y="196.3269">Naar het apparaat lopen</text></g><!--link Voorbereiden to Filter--><g id="link_Voorbereiden_Filter"><path d="M350.13,262.03 C266.92,268.77 153.54,282.81 118.42,310.53 C104,321.91 97.8735,335.6587 93.9435,351.3987 " fill="none" id="Voorbereiden-to-Filter" style="stroke:#181818;stroke-width:1.0;"/><polygon fill="#181818" points="92.49,357.22,98.5511,349.457,93.7012,352.3689,90.7893,347.5191,92.49,357.22" style="stroke:#181818;stroke-width:1.0;"/><text fill="#000000" font-family="sans-serif" font-size="13" lengthAdjust="spacing" textLength="93.1772" x="119.42" y="323.5969">Filter plaatsen</text></g><!--link Voorbereiden to Maling--><g id="link_Voorbereiden_Maling"><path d="M370.64,281.02 C333.73,297.09 291.65,321.83 266.42,357.53 C239.45,395.68 236.5469,446.4228 237.5269,478.5128 " fill="none" id="Voorbereiden-to-Maling" style="stroke:#181818;stroke-width:1.0;"/><polygon fill="#181818" points="237.71,484.51,241.4334,475.3921,237.5574,479.5123,233.4371,475.6363,237.71,484.51" style="stroke:#181818;stroke-width:1.0;"/><text fill="#000000" font-family="sans-serif" font-size="13" lengthAdjust="spacing" textLength="150.8013" x="267.42" y="387.2269">Filtermaling toevoegen</text></g><!--link Voorbereiden to Water--><g id="link_Voorbereiden_Water"><path d="M441.97,280.98 C438.71,311.11 432.2,363.58 422.42,407.8 C419.41,421.39 415.44,424.02 413.42,437.8 C405.18,493.89 409.3183,554.7413 412.9183,589.8713 " fill="none" id="Voorbereiden-to-Water" style="stroke:#181818;stroke-width:1.0;"/><polygon fill="#181818" points="413.53,595.84,416.5917,586.4791,413.0203,590.866,408.6334,587.2947,413.53,595.84" style="stroke:#181818;stroke-width:1.0;"/><text fill="#000000" font-family="sans-serif" font-size="13" lengthAdjust="spacing" textLength="112.5757" x="414.42" y="450.8669">Water toevoegen</text></g><!--link Voorbereiden to Aanzetten--><g id="link_Voorbereiden_Aanzetten"><path d="M485.31,281.02 C516.24,303.08 553.42,338.57 553.42,381.66 C553.42,381.66 553.42,381.66 553.42,622.19 C553.42,659.96 525.5882,685.4384 494.7982,703.8684 " fill="none" id="Voorbereiden-to-Aanzetten" style="stroke:#181818;stroke-width:1.0;"/><polygon fill="#181818" points="489.65,706.95,499.4267,705.7598,493.9402,704.382,495.3179,698.8955,489.65,706.95" style="stroke:#181818;stroke-width:1.0;"/><text fill="#000000" font-family="sans-serif" font-size="13" lengthAdjust="spacing" textLength="133.2754" x="554.42" y="514.4969">Koffie zetten starten</text></g><!--link Aanzetten to Wachten--><g id="link_Aanzetten_Wachten"><path d="M470.4,757.91 C500.08,779.91 538.6595,808.5075 568.3995,830.5475 " fill="none" id="Aanzetten-to-Wachten" style="stroke:#181818;stroke-width:1.0;"/><polygon fill="#181818" points="573.22,834.12,568.3708,825.5476,569.2029,831.143,563.6076,831.975,573.22,834.12" style="stroke:#181818;stroke-width:1.0;"/><text fill="#000000" font-family="sans-serif" font-size="13" lengthAdjust="spacing" textLength="147.6021" x="533.42" y="800.6569">Machine begint proces</text></g><!--link Wachten to Drinken--><g id="link_Wachten_Drinken"><path d="M586.31,885.18 C568.16,907.25 545.4106,934.9154 527.2806,956.9654 " fill="none" id="Wachten-to-Drinken" style="stroke:#181818;stroke-width:1.0;"/><polygon fill="#181818" points="523.47,961.6,532.2757,957.1886,526.6455,957.7379,526.0962,952.1077,523.47,961.6" style="stroke:#181818;stroke-width:1.0;"/><text fill="#000000" font-family="sans-serif" font-size="13" lengthAdjust="spacing" textLength="88.3086" x="562.42" y="927.9269">Koffie is klaar</text></g><!--link Drinken to Leeg--><g id="link_Drinken_Leeg"><path d="M491.31,1012.44 C480.39,1034.51 467.0608,1061.4423 456.1508,1083.4923 " fill="none" id="Drinken-to-Leeg" style="stroke:#181818;stroke-width:1.0;"/><polygon fill="#181818" points="453.49,1088.87,461.0664,1082.5773,455.7074,1084.3886,453.8961,1079.0295,453.49,1088.87" style="stroke:#181818;stroke-width:1.0;"/><text fill="#000000" font-family="sans-serif" font-size="13" lengthAdjust="spacing" textLength="179.4229" x="477.42" y="1055.1869">Altijd even netjes opruimen</text></g><!--link Leeg to Zin--><g id="link_Leeg_Zin"><path d="M501.04,1113.69 C588.53,1110.85 741.42,1091.14 741.42,987.99 C741.42,254.4 741.42,254.4 741.42,254.4 C741.42,202.56 693.3169,170.2545 650.6369,150.7445 " fill="none" id="Leeg-to-Zin" style="stroke:#181818;stroke-width:1.0;"/><polygon fill="#181818" points="645.18,148.25,651.7024,155.6296,649.7274,150.3287,655.0283,148.3538,645.18,148.25" style="stroke:#181818;stroke-width:1.0;"/><text fill="#000000" font-family="sans-serif" font-size="13" lengthAdjust="spacing" textLength="169.5522" x="742.42" y="625.7569">Ik lust nog wel een bakkie</text></g><!--link Leeg to Filter--><g id="link_Leeg_Filter"><path d="M381.7,1104.6 C281.28,1088.35 89.42,1049.29 89.42,987.99 C89.42,508.93 89.42,508.93 89.42,508.93 C89.42,473.91 89.0889,439.3996 88.7989,414.1496 " fill="none" id="Leeg-to-Filter" style="stroke:#181818;stroke-width:1.0;"/><polygon fill="#181818" points="88.73,408.15,84.8336,417.1953,88.7874,413.1497,92.8331,417.1035,88.73,408.15" style="stroke:#181818;stroke-width:1.0;"/></g><!--link Filter to Maling--><g id="link_Filter_Maling"><path d="M117.89,408.11 C144.41,430.11 178.5621,458.4492 205.1421,480.4992 " fill="none" id="Filter-to-Maling" style="stroke:#181818;stroke-width:1.0;"/><polygon fill="#181818" points="209.76,484.33,205.3871,475.5052,205.9118,481.1376,200.2793,481.6623,209.76,484.33" style="stroke:#181818;stroke-width:1.0;"/></g><!--link Maling to Water--><g id="link_Maling_Water"><path d="M279.14,535.45 C308.19,553.38 342.3246,574.458 371.4146,592.418 " fill="none" id="Maling-to-Water" style="stroke:#181818;stroke-width:1.0;"/><polygon fill="#181818" points="376.52,595.57,370.9633,587.4384,372.2655,592.9433,366.7606,594.2455,376.52,595.57" style="stroke:#181818;stroke-width:1.0;"/></g><!--link Water to Aanzetten--><g id="link_Water_Aanzetten"><path d="M421.13,646.72 C424.59,664.71 428.1262,683.1481 431.5862,701.1281 " fill="none" id="Water-to-Aanzetten" style="stroke:#181818;stroke-width:1.0;"/><polygon fill="#181818" points="432.72,707.02,434.9472,697.4263,431.7752,702.1101,427.0913,698.938,432.72,707.02" style="stroke:#181818;stroke-width:1.0;"/></g><!--link Aanzetten to Klaar--><g id="link_Aanzetten_Klaar"><path d="M437.42,757.91 C437.42,779.98 437.42,806.28 437.42,828.34 " fill="none" id="Aanzetten-to-Klaar" style="stroke:#181818;stroke-width:1.0;"/><polygon fill="#181818" points="437.42,834.34,441.42,825.34,437.42,829.34,433.42,825.34,437.42,834.34" style="stroke:#181818;stroke-width:1.0;"/></g><!--link Aanzetten to Leeg--><g id="link_Aanzetten_Leeg"><path d="M410.83,758.03 C392.46,776.93 369.57,804.79 359.42,834.59 C327.77,927.44 388.2246,1035.0658 420.6846,1083.8158 " fill="none" id="Aanzetten-to-Leeg" style="stroke:#181818;stroke-width:1.0;"/><polygon fill="#181818" points="424.01,1088.81,422.3514,1079.1018,421.2389,1084.6482,415.6925,1083.5356,424.01,1088.81" style="stroke:#181818;stroke-width:1.0;"/></g><!--SRC=[RLBRRi8m37tFLtWyJk87U9Y4j8icnXw7j6aFBdLBI4cgD329hvzpQNe1X9JKFYUspt7dq14ilgK6_YjJLP8MW1tuo0hUgB1dgSYABWA_ZB45MPAbr3LfS9QgYdIW33cwoztX_k0uPTfneJvwXx09A2Yjr2hLU8xt2LhyFFx2SlcKUdxXT4EAC_27ziHqrEf8S3Ldy35g_AWreXQUu8cppZyHBHp80ROjMaG7ZMb9YmdCyrvbu_Z9LNzf6mPtzv1RR5YmZ3p5JsVeOiZhUClOONmwdXbv2roZlfAB4YR5qZVBQFaK0o8-t0k-vPlK10NLKZjehTbJ9_gynmvofvTb1ug7jABFUDG7aHzjtJXvB84k7DRaZjInrUpHYLi8aC6ZTmNDkNEWJHqC8QOKg9GauN_9_tMMdzd1_hvIIamNfOecr1HjS86HBPfpvaRKGU0oaB9RSr8sOupkdPg3S_kyQW4uTkh-25dVXq3O-EiOFEYOvXBf77PCfERp3edOtsHLPYiHwinYlj8_]--></g></svg>