<svg xmlns="http://www.w3.org/2000/svg" xmlns:xlink="http://www.w3.org/1999/xlink" contentStyleType="text/css" height="952px" preserveAspectRatio="none" style="width:633px;height:952px;background:#FFFFFF;" version="1.1" viewBox="0 0 633 952" width="633px" zoomAndPan="magnify"><defs/><g><g id="Zin"><rect fill="#F1F1F1" height="50" rx="12.5" ry="12.5" style="stroke:#181818;stroke-width:0.5;" width="103.0498" x="106.87" y="769"/><line style="stroke:#181818;stroke-width:0.5;" x1="106.87" x2="209.9198" y1="795.2969" y2="795.2969"/><text fill="#000000" font-family="sans-serif" font-size="14" lengthAdjust="spacing" textLength="83.0498" x="116.87" y="786.9951">Zin in koffie</text></g><g id="Leeg"><rect fill="#F1F1F1" height="50" rx="12.5" ry="12.5" style="stroke:#181818;stroke-width:0.5;" width="118.7861" x="7" y="642"/><line style="stroke:#181818;stroke-width:0.5;" x1="7" x2="125.7861" y1="668.2969" y2="668.2969"/><text fill="#000000" font-family="sans-serif" font-size="14" lengthAdjust="spacing" textLength="98.7861" x="17" y="659.9951">Apparaat leeg</text></g><g id="Filter"><rect fill="#F1F1F1" height="50" rx="12.5" ry="12.5" style="stroke:#181818;stroke-width:0.5;" width="162.8301" x="231.98" y="896"/><line style="stroke:#181818;stroke-width:0.5;" x1="231.98" x2="394.8101" y1="922.2969" y2="922.2969"/><text fill="#000000" font-family="sans-serif" font-size="14" lengthAdjust="spacing" textLength="142.8301" x="241.98" y="913.9951">Koffiefilter geplaatst</text></g><g id="Maling"><rect fill="#F1F1F1" height="50" rx="12.5" ry="12.5" style="stroke:#181818;stroke-width:0.5;" width="191.3018" x="219.74" y="7"/><line style="stroke:#181818;stroke-width:0.5;" x1="219.74" x2="411.0418" y1="33.2969" y2="33.2969"/><text fill="#000000" font-family="sans-serif" font-size="14" lengthAdjust="spacing" textLength="171.3018" x="229.74" y="24.9951">Filtermaling toegevoegd</text></g><g id="Water"><rect fill="#F1F1F1" height="50" rx="12.5" ry="12.5" style="stroke:#181818;stroke-width:0.5;" width="150.1357" x="88.33" y="134"/><line style="stroke:#181818;stroke-width:0.5;" x1="88.33" x2="238.4657" y1="160.2969" y2="160.2969"/><text fill="#000000" font-family="sans-serif" font-size="14" lengthAdjust="spacing" textLength="130.1357" x="98.33" y="151.9951">Water toegevoegd</text></g><g id="Aanzetten"><rect fill="#F1F1F1" height="50" rx="12.5" ry="12.5" style="stroke:#181818;stroke-width:0.5;" width="114.8145" x="103.99" y="261"/><line style="stroke:#181818;stroke-width:0.5;" x1="103.99" x2="218.8045" y1="287.2969" y2="287.2969"/><text fill="#000000" font-family="sans-serif" font-size="14" lengthAdjust="spacing" textLength="94.8145" x="113.99" y="278.9951">Apparaat aan</text></g><g id="Wachten"><rect fill="#F1F1F1" height="50" rx="12.5" ry="12.5" style="stroke:#181818;stroke-width:0.5;" width="147.3535" x="79.72" y="388"/><line style="stroke:#181818;stroke-width:0.5;" x1="79.72" x2="227.0735" y1="414.2969" y2="414.2969"/><text fill="#000000" font-family="sans-serif" font-size="14" lengthAdjust="spacing" textLength="127.3535" x="89.72" y="405.9951">Wachten op koffie</text></g><g id="Drinken"><rect fill="#F1F1F1" height="50" rx="12.5" ry="12.5" style="stroke:#181818;stroke-width:0.5;" width="117.5557" x="62.62" y="515"/><line style="stroke:#181818;stroke-width:0.5;" x1="62.62" x2="180.1757" y1="541.2969" y2="541.2969"/><text fill="#000000" font-family="sans-serif" font-size="14" lengthAdjust="spacing" textLength="97.5557" x="72.62" y="532.9951">Koffie drinken</text></g><ellipse cx="170.39" cy="667" fill="#222222" rx="10" ry="10" style="stroke:#222222;stroke-width:1.0;"/><!--link *start* to Zin--><g id="link_*start*_Zin"><path d="M167.21,676.64 C163.51,687.18 157.63,705.61 155.39,722 C153.29,737.4 153.4507,748.8643 154.6907,762.6043 " fill="none" id="*start*-to-Zin" style="stroke:#181818;stroke-width:1.0;"/><polygon fill="#181818" points="155.23,768.58,158.4049,759.2569,154.7806,763.6002,150.4373,759.976,155.23,768.58" style="stroke:#181818;stroke-width:1.0;"/><text fill="#000000" font-family="sans-serif" font-size="13" lengthAdjust="spacing" textLength="285.9429" x="156.39" y="735.0669">Een lekker warm drankje zou er wel in gaan</text></g><!--link Zin to Filter--><g id="link_Zin_Filter"><path d="M188.65,819.4 C215.96,841.42 251.2588,869.8943 278.5488,891.8943 " fill="none" id="Zin-to-Filter" style="stroke:#181818;stroke-width:1.0;"/><polygon fill="#181818" points="283.22,895.66,278.7237,886.8974,279.3274,892.5219,273.7028,893.1256,283.22,895.66" style="stroke:#181818;stroke-width:1.0;"/><text fill="#000000" font-family="sans-serif" font-size="13" lengthAdjust="spacing" textLength="109.8843" x="245.39" y="862.0669">Filtertje plaatsen</text></g><!--link Filter to Maling--><g id="link_Filter_Maling"><path d="M380.93,895.65 C422.7,875.77 468.39,843.05 468.39,795 C468.39,158 468.39,158 468.39,158 C468.39,110.15 428.3634,79.9383 387.0134,59.9783 " fill="none" id="Filter-to-Maling" style="stroke:#181818;stroke-width:1.0;"/><polygon fill="#181818" points="381.61,57.37,387.9763,64.8847,386.1128,59.5436,391.454,57.6801,381.61,57.37" style="stroke:#181818;stroke-width:1.0;"/><text fill="#000000" font-family="sans-serif" font-size="13" lengthAdjust="spacing" textLength="150.8013" x="469.39" y="481.0669">Filtermaling toevoegen</text></g><!--link Maling to Maling--><g id="link_Maling_Maling"><path d="M411.39,20.5 C431.53,21.69 446.04,25.52 446.04,32 C446.04,38.48 437.5196,41.9661 417.3796,43.1561 " fill="none" id="Maling-to-Maling" style="stroke:#181818;stroke-width:1.0;"/><polygon fill="#181818" points="411.39,43.51,420.6103,46.9722,416.3813,43.2151,420.1384,38.9861,411.39,43.51" style="stroke:#181818;stroke-width:1.0;"/><text fill="#000000" font-family="sans-serif" font-size="13" lengthAdjust="spacing" textLength="168.5557" x="452.04" y="36.5669">Extra schepjes toevoegen</text></g><!--link Maling to Water--><g id="link_Maling_Water"><path d="M285.73,57.4 C258.94,79.42 224.3848,107.8496 197.6248,129.8496 " fill="none" id="Maling-to-Water" style="stroke:#181818;stroke-width:1.0;"/><polygon fill="#181818" points="192.99,133.66,202.4824,131.0343,196.8523,130.4847,197.4019,124.8546,192.99,133.66" style="stroke:#181818;stroke-width:1.0;"/><text fill="#000000" font-family="sans-serif" font-size="13" lengthAdjust="spacing" textLength="112.5757" x="249.39" y="100.0669">Water toevoegen</text></g><!--link Water to Water--><g id="link_Water_Water"><path d="M238.76,147.21 C258.52,147.91 273.46,151.84 273.46,159 C273.46,166.16 264.5162,169.8776 244.7562,170.5776 " fill="none" id="Water-to-Water" style="stroke:#181818;stroke-width:1.0;"/><polygon fill="#181818" points="238.76,170.79,247.896,174.4689,243.7569,170.613,247.6127,166.4739,238.76,170.79" style="stroke:#181818;stroke-width:1.0;"/><text fill="#000000" font-family="sans-serif" font-size="13" lengthAdjust="spacing" textLength="147.0435" x="279.46" y="163.5669">Meer water toevoegen</text></g><!--link Water to Aanzetten--><g id="link_Water_Aanzetten"><path d="M163,184.4 C162.65,206.42 162.2254,232.6608 161.8754,254.6608 " fill="none" id="Water-to-Aanzetten" style="stroke:#181818;stroke-width:1.0;"/><polygon fill="#181818" points="161.78,260.66,165.9227,251.7248,161.8595,255.6606,157.9237,251.5975,161.78,260.66" style="stroke:#181818;stroke-width:1.0;"/><text fill="#000000" font-family="sans-serif" font-size="13" lengthAdjust="spacing" textLength="133.2754" x="163.39" y="227.0669">Koffie zetten starten</text></g><!--link Aanzetten to Wachten--><g id="link_Aanzetten_Wachten"><path d="M159.83,311.4 C158.42,333.42 156.7438,359.6723 155.3338,381.6723 " fill="none" id="Aanzetten-to-Wachten" style="stroke:#181818;stroke-width:1.0;"/><polygon fill="#181818" points="154.95,387.66,159.5174,378.9343,155.2698,382.6702,151.5338,378.4226,154.95,387.66" style="stroke:#181818;stroke-width:1.0;"/><text fill="#000000" font-family="sans-serif" font-size="13" lengthAdjust="spacing" textLength="147.6021" x="158.39" y="354.0669">Machine begint proces</text></g><!--link Wachten to Drinken--><g id="link_Wachten_Drinken"><path d="M147.15,438.4 C141.51,460.42 134.75,486.848 129.11,508.848 " fill="none" id="Wachten-to-Drinken" style="stroke:#181818;stroke-width:1.0;"/><polygon fill="#181818" points="127.62,514.66,133.7297,506.9353,128.8617,509.8166,125.9803,504.9486,127.62,514.66" style="stroke:#181818;stroke-width:1.0;"/><text fill="#000000" font-family="sans-serif" font-size="13" lengthAdjust="spacing" textLength="88.3086" x="139.39" y="481.0669">Koffie is klaar</text></g><!--link Drinken to Leeg--><g id="link_Drinken_Leeg"><path d="M110.66,565.4 C100.97,587.42 89.1964,614.1681 79.5164,636.1681 " fill="none" id="Drinken-to-Leeg" style="stroke:#181818;stroke-width:1.0;"/><polygon fill="#181818" points="77.1,641.66,84.3859,635.0331,79.1137,637.0834,77.0634,631.8112,77.1,641.66" style="stroke:#181818;stroke-width:1.0;"/><text fill="#000000" font-family="sans-serif" font-size="13" lengthAdjust="spacing" textLength="179.4229" x="98.39" y="608.0669">Altijd even netjes opruimen</text></g><!--link Leeg to Zin--><g id="link_Leeg_Zin"><path d="M84.35,692.4 C100.56,714.42 120.7223,741.8286 136.9223,763.8286 " fill="none" id="Leeg-to-Zin" style="stroke:#181818;stroke-width:1.0;"/><polygon fill="#181818" points="140.48,768.66,138.3644,759.041,137.5153,764.6338,131.9225,763.7846,140.48,768.66" style="stroke:#181818;stroke-width:1.0;"/></g><!--SRC=[RPBFQiCm3CRlUGhHuw0lqCCWiEwozJpOs45hrTI9OnjRxKQVVfBj9DqVA47IzvCYVMbYP8BLgt4Wly4VZuPMW0caqgGYjY5WH6ImH5qMdoMOrAVSSpIMAK97mGgPE6EFkJY19HlH6jS1U-he8ez39dUvEf4lgBD-8RduPoL4bzKMtPMOoIqpzYT9mOVRgshrv-vmYCODL0OzbBXftkxUORs-LoDW0riPPMaOPAzFZAEqe1jwWgi_WzR8gd-ThDDeWpQMUwMt12nqCKUcLqsnSlgCBVxewO9M_PRSVd54IFiJXPxImi8C2rrCtC1iPfrNyXjWH_ceVod1PcS5hNxLN4oCQkP2bFSMusMmHCOHV51d74E8Va-fcNHbgzdBP9DW48zYCobAwRzDaDQowGz05oaxOhtSXtWsewoGaVgrlW40]--></g></svg>